<svg xmlns="http://www.w3.org/2000/svg" width="1024" height="1024" viewBox="0 0 256 256" version="1.1" class="injected-svg" data-src="https://storage.googleapis.com/illustroke-c1d67.appspot.com/hGhOVM2zF2TUtaY4ELuRoAncZ4G2/b6zxjdj0ro53oaf4xxgywv-0.svg" xmlns:xlink="http://www.w3.org/1999/xlink">
	<path fill="#E0E0E0" d="M 65.391 32.369 C 60.734 34.490, 55.037 40.678, 52.363 46.519 C 41.287 70.712, 53.315 96.884, 73.328 92.136 C 83.932 89.620, 83.666 89.620, 84.345 92.157 C 84.690 93.446, 84.979 95.317, 84.986 96.315 C 85.016 100.272, 89.277 108.008, 92.536 110.022 C 96.493 112.468, 99.604 119.903, 97.664 122.278 C 97.024 123.062, 89.638 129.427, 81.250 136.422 C 72.862 143.416, 66 149.584, 66 150.129 C 66 150.673, 66.544 150.782, 67.208 150.371 C 68.617 149.501, 68.377 149.699, 86.219 134.616 C 99.010 123.802, 100.013 123.155, 101.027 125.050 C 102.494 127.791, 103.071 136.382, 102.197 142.473 C 101.573 146.822, 101.032 147.700, 97.888 149.473 C 95.911 150.588, 91.928 154.091, 89.038 157.259 C 84.294 162.458, 83.826 163.381, 84.220 166.759 C 84.504 169.189, 83.874 172.428, 82.422 176 C 81.193 179.025, 79.143 185.550, 77.867 190.500 C 76.590 195.450, 75.095 199.815, 74.545 200.199 C 73.996 200.584, 72.781 200.207, 71.847 199.362 C 69.544 197.278, 66.483 198.024, 66.565 200.650 C 66.624 202.531, 65.897 202.800, 59.209 203.365 C 50.009 204.143, 46.986 205.530, 44.752 210.001 C 43.790 211.926, 43.002 212.978, 43.002 212.339 C 43.001 211.701, 40.946 210.184, 38.436 208.969 C 33.916 206.781, 32.791 206.747, 24.305 208.550 C 21.443 209.157, 20.899 208.883, 19.098 205.920 C 17.401 203.130, 16.981 202.887, 16.412 204.370 C 14.478 209.410, 20.797 213.959, 27.116 212.077 C 29.105 211.485, 31.521 211, 32.486 211 C 35.086 211, 42.688 216.161, 43.902 218.750 C 45.230 221.583, 45.857 221.574, 65.500 218.450 C 74.300 217.051, 86.766 215.489, 93.202 214.981 C 99.638 214.473, 107.460 213.194, 110.585 212.139 L 116.266 210.221 121.883 215.907 C 127.938 222.037, 134.345 225.529, 146.083 229.094 C 156.676 232.311, 165.828 232.141, 173.500 228.585 C 180.340 225.415, 183.598 225.481, 191.677 228.956 C 196.134 230.874, 196.894 231.623, 197.464 234.658 C 197.978 237.401, 198.844 238.455, 201.491 239.561 C 203.346 240.336, 205.146 241.427, 205.491 241.985 C 205.836 242.543, 207.651 243, 209.524 243 C 213.411 243, 214.391 241.691, 215.388 235.167 C 216.278 229.340, 220.028 222.260, 224.478 218 C 226.489 216.075, 229.506 211.933, 231.182 208.796 C 232.859 205.658, 235.753 201.312, 237.615 199.137 C 244.561 191.021, 240.759 189.676, 230.382 196.577 C 222.377 201.902, 220.967 203.488, 217.337 211.250 C 214.679 216.935, 212.498 218.461, 211.341 215.446 C 211.013 214.592, 211.492 212.229, 212.405 210.196 C 213.318 208.163, 214.909 201.775, 215.939 196 C 216.970 190.225, 219.063 182.125, 220.589 178 C 222.722 172.235, 223.380 168.655, 223.432 162.525 C 223.516 152.684, 222.020 151.745, 215.944 157.821 C 213.149 160.616, 211.371 161.648, 209.980 161.285 C 207.304 160.585, 200 167.831, 200 171.187 C 200 174.838, 190.957 187.786, 189.716 185.911 C 188.924 184.713, 184.715 174.199, 184.300 172.383 C 183.950 170.845, 184.664 169.664, 186.909 168.065 C 188.609 166.854, 190 165.272, 190 164.548 C 190 163.825, 188.250 161.652, 186.112 159.720 C 182.488 156.446, 179.637 155.281, 167.425 152.084 C 155.340 148.920, 148.868 137.057, 152.031 123.869 L 153.296 118.597 157.398 123.202 C 162.529 128.961, 171.709 137, 173.154 137 C 173.753 137, 169.684 132.592, 164.112 127.204 L 153.982 117.409 155.595 112.677 C 156.696 109.443, 158.087 107.489, 159.984 106.508 C 161.512 105.718, 164.004 103.593, 165.523 101.786 L 168.284 98.500 185.595 98 C 195.116 97.725, 203.355 97.050, 203.904 96.500 C 204.569 95.833, 198.918 95.616, 186.951 95.847 C 170.032 96.174, 169.001 96.088, 169.015 94.347 C 169.047 90.571, 170.247 90.186, 176 92.107 C 191.068 97.138, 202.235 91.319, 206.649 76.136 C 210.625 62.457, 204.263 43.344, 193.132 35.528 C 189.267 32.814, 188.078 32.508, 181.660 32.576 C 168.785 32.712, 160.684 38.043, 155.204 49.985 C 153.307 54.118, 151.630 57.643, 151.476 57.818 C 151.322 57.994, 149.108 56.543, 146.556 54.595 C 141.778 50.948, 133.824 48, 128.761 48 C 123.757 48, 116.684 50.252, 111.073 53.631 C 108.089 55.429, 105.266 56.664, 104.801 56.377 C 104.336 56.089, 102.619 53.207, 100.985 49.970 C 96.918 41.913, 92.844 37.560, 86.437 34.425 C 79.843 31.199, 70.058 30.243, 65.391 32.369 M 99.413 83.884 C 95.130 84.989, 94.216 85.681, 92.399 89.195 C 90.222 93.405, 91.267 99.963, 94.617 103.110 C 96.744 105.108, 98.391 105.547, 104.826 105.829 C 117.340 106.379, 120.506 104.016, 121.627 93.290 C 122.234 87.488, 122.143 87.140, 119.572 85.455 C 116.562 83.483, 104.585 82.550, 99.413 83.884 M 138.272 84.211 C 134.480 86.041, 133.523 93.097, 136.458 97.577 C 137.597 99.314, 138.959 99.999, 141.273 99.996 C 145.259 99.992, 150.591 96.864, 151.501 93.997 C 153.043 89.140, 150.538 86.221, 143.500 84.672 C 142.400 84.430, 143.352 84.180, 145.615 84.116 C 150.074 83.990, 154.409 86.562, 155.492 89.976 C 156.184 92.156, 153.923 97.077, 150.791 100.209 L 148.688 102.312 152.468 101.699 C 156.948 100.972, 159.774 98.687, 161.638 94.282 C 163.933 88.860, 163.420 86.427, 159.599 84.614 C 155.667 82.748, 141.844 82.487, 138.272 84.211 M 103.289 86.772 C 100.396 89.033, 97.951 95.052, 98.690 98.092 C 99.646 102.020, 103.005 105, 106.478 105 C 112.036 105, 118.784 95.973, 117.387 90.407 C 116.102 85.285, 107.899 83.170, 103.289 86.772 M 105.913 89.255 C 101.367 92.823, 101.267 98.391, 105.721 100.084 C 110.482 101.894, 114.714 97.077, 113.833 90.852 C 113.578 89.049, 112.799 88.443, 110.500 88.255 C 108.850 88.120, 106.786 88.570, 105.913 89.255 M 144.667 88.667 C 143.298 90.036, 144.067 93.965, 145.895 94.944 C 148.444 96.308, 150.445 93.910, 149.593 90.513 C 148.993 88.126, 146.240 87.093, 144.667 88.667 M 107.411 91.498 C 106.626 94.627, 107.488 97, 109.410 97 C 111.648 97, 112.087 95.549, 110.890 92.115 C 109.579 88.355, 108.259 88.120, 107.411 91.498 M 145.500 90 C 145.160 90.550, 145.359 91, 145.941 91 C 146.523 91, 147 90.550, 147 90 C 147 89.450, 146.802 89, 146.559 89 C 146.316 89, 145.840 89.450, 145.500 90 M 181.417 142.421 C 183.571 144.389, 186.244 146, 187.358 146 C 189.353 146, 189.354 145.978, 187.441 144.532 C 186.374 143.724, 185.119 143.049, 184.654 143.032 C 184.189 143.014, 182.389 142.064, 180.654 140.921 C 177.960 139.145, 178.072 139.364, 181.417 142.421 M 165.015 162.750 C 165.024 163.749, 165.351 164.071, 165.777 163.500 C 166.187 162.950, 166.931 162.162, 167.428 161.750 C 167.926 161.338, 167.583 161, 166.667 161 C 165.740 161, 165.007 161.777, 165.015 162.750 M 206.238 168.750 C 205.081 171.363, 203.034 176.022, 201.689 179.105 C 200.111 182.721, 197.781 185.885, 195.122 188.022 C 192.855 189.844, 191.003 191.597, 191.008 191.917 C 191.012 192.238, 192.725 193.476, 194.814 194.669 C 198.308 196.663, 198.698 196.703, 199.674 195.169 C 200.575 193.753, 201.210 193.676, 203.868 194.663 C 206.581 195.671, 207.013 195.604, 207.100 194.163 C 207.344 190.110, 209.004 173.064, 209.574 168.750 C 209.932 166.039, 209.802 164, 209.272 164 C 208.760 164, 207.395 166.137, 206.238 168.750 M 98.092 168.133 C 96.951 169.435, 94.260 172.384, 92.111 174.687 C 88.012 179.081, 84.549 187.583, 83.396 196.082 C 82.796 200.504, 82.884 200.709, 85.921 201.967 C 87.652 202.684, 89.905 204.335, 90.928 205.635 C 93.397 208.774, 101.077 208.883, 108.065 205.877 C 110.779 204.709, 113 203.609, 113 203.433 C 113 203.256, 111.498 199.374, 109.663 194.806 C 107.828 190.238, 105.294 182.225, 104.032 177 C 102.771 171.775, 101.385 167.110, 100.952 166.633 C 100.520 166.156, 99.232 166.831, 98.092 168.133 M 68.733 201.124 C 69.412 201.808, 70.219 202.115, 70.526 201.807 C 70.834 201.499, 70.279 200.940, 69.293 200.564 C 67.868 200.022, 67.753 200.136, 68.733 201.124 M 190.559 207.250 C 187.936 215.925, 187.994 216.181, 193.742 221.407 L 199.140 226.313 202.820 224.182 C 205.718 222.504, 206.457 221.495, 206.300 219.438 C 206.032 215.949, 204.380 214.136, 199.798 212.302 C 197.295 211.301, 195.776 209.954, 195.382 208.388 C 194.744 205.845, 191.234 205.017, 190.559 207.250" stroke="none" fill-rule="evenodd" fill-opacity="1"/>
	<path fill="#ACACAC" d="M 66.615 32.442 C 52.029 37.756, 43.630 64.476, 51.588 80.249 C 56.853 90.683, 65.571 94.513, 76.035 90.988 C 79.281 89.895, 82.378 89, 82.918 89 C 83.458 89, 84.419 91.640, 85.054 94.868 C 86.508 102.258, 89.654 107.926, 93.732 110.500 C 96.214 112.066, 100 118.057, 100 120.418 C 100 120.846, 76.709 140.849, 70.250 145.967 C 67.913 147.819, 66.211 149.544, 66.468 149.801 C 66.725 150.058, 74.240 144.133, 83.169 136.634 C 92.097 129.135, 99.740 123, 100.154 123 C 102.341 123, 103.594 134.390, 102.380 143.244 C 101.846 147.141, 101.249 148.054, 98.065 149.844 C 96.032 150.986, 91.989 154.657, 89.081 158.001 C 84.384 163.400, 83.861 164.446, 84.405 167.346 C 84.829 169.606, 84.285 172.441, 82.637 176.556 C 81.328 179.825, 79.222 186.550, 77.957 191.500 C 76.693 196.450, 75.496 200.701, 75.298 200.947 C 75.100 201.194, 73.643 200.630, 72.059 199.694 C 68.828 197.785, 65.737 198.411, 66.219 200.876 C 66.478 202.201, 65.007 202.709, 58.222 203.637 C 49.284 204.859, 46.770 206.296, 44.486 211.492 C 43.758 213.146, 43.126 213.956, 43.082 213.292 C 43.037 212.628, 41.007 210.916, 38.570 209.488 C 34.331 207.004, 33.887 206.945, 28.228 208.114 C 21.619 209.479, 19.057 208.935, 18.291 206.006 C 18.006 204.915, 17.393 204.257, 16.930 204.543 C 15.881 205.192, 16.799 207.913, 18.883 210.334 C 20.257 211.930, 21.435 212.083, 27.981 211.518 C 34.987 210.913, 35.732 211.041, 38.899 213.401 C 40.769 214.794, 42.681 215.697, 43.149 215.408 C 43.617 215.119, 44 215.753, 44 216.819 C 44 220.957, 46.104 221.272, 59.189 219.097 C 78.270 215.925, 85.836 214.920, 94.500 214.405 C 98.900 214.144, 105.803 213.036, 109.839 211.944 L 117.178 209.957 119.312 212.729 C 125.012 220.131, 131.712 224.145, 145.889 228.651 C 155.356 231.660, 164.072 231.741, 171.213 228.886 C 180.723 225.084, 181.640 224.984, 187.722 227.076 C 195.440 229.732, 197.806 231.463, 198.181 234.728 C 198.410 236.720, 199.456 237.977, 201.895 239.195 C 203.762 240.127, 205.764 241.364, 206.345 241.945 C 209.619 245.219, 214.991 241.241, 215.010 235.527 C 215.024 231.078, 219.082 223.119, 223.884 218.121 C 226.198 215.713, 229.031 211.888, 230.180 209.621 C 231.329 207.355, 234.271 202.859, 236.716 199.632 C 242.829 191.565, 241.307 190.376, 232.038 195.977 C 223.724 201, 220.644 204.384, 217.242 212.228 C 215.865 215.403, 214.460 217.986, 214.119 217.968 C 213.779 217.951, 212.728 217.350, 211.784 216.633 C 210.170 215.406, 210.189 215.007, 212.118 209.931 C 213.246 206.963, 214.787 200.477, 215.542 195.517 C 216.297 190.558, 218.268 182.817, 219.923 178.316 C 223.426 168.785, 224.925 157.819, 223.036 155.543 C 221.957 154.244, 221.446 154.235, 219.048 155.475 C 217.535 156.258, 215.545 158.046, 214.625 159.449 C 213.483 161.193, 212.055 162, 210.112 162 C 205.763 162, 202.221 165.435, 200.505 171.316 C 199.674 174.167, 197.176 178.975, 194.955 182 L 190.917 187.500 195.342 182.782 C 197.776 180.187, 200.075 176.837, 200.452 175.337 C 201.541 170.997, 203.975 165.642, 204.582 166.249 C 204.888 166.555, 204.697 167.637, 204.158 168.653 C 203.619 169.669, 202.388 172.735, 201.424 175.466 C 199.231 181.675, 193.233 188.410, 190.746 187.456 C 189.786 187.088, 189 186.272, 188.999 185.643 C 188.999 185.014, 187.624 181.594, 185.943 178.042 L 182.888 171.584 186.458 168.216 L 190.028 164.848 187.896 161.853 C 185.458 158.430, 180.642 156.054, 170.182 153.116 C 163.978 151.373, 159.806 149.063, 153.735 144.007 C 153.315 143.657, 152.353 140.131, 151.599 136.171 C 150.409 129.930, 150.426 128.294, 151.723 123.871 L 153.218 118.770 159.859 125.163 C 163.512 128.679, 167.850 132.634, 169.500 133.952 C 171.150 135.270, 169.577 133.460, 166.005 129.930 C 153.600 117.671, 153.567 117.618, 155.021 112.424 C 156.051 108.747, 157.005 107.528, 160.081 105.959 C 162.166 104.895, 164.673 102.669, 165.652 101.012 L 167.431 98 181.466 97.942 C 189.185 97.911, 197.300 97.482, 199.500 96.989 C 202.259 96.372, 198.148 96.177, 186.250 96.361 L 169 96.629 169 93.314 C 169 89.360, 169.912 89.214, 177.239 91.999 C 186.483 95.513, 193.651 94.178, 199.638 87.828 C 203.701 83.519, 205.499 79.822, 206.946 72.802 C 209.667 59.599, 201.439 39.898, 190.935 34.466 C 187.236 32.553, 177.410 32.592, 171.876 34.541 C 163.637 37.442, 160.213 40.677, 155.858 49.675 C 153.642 54.254, 151.505 58, 151.109 58 C 150.713 58, 148.839 56.826, 146.944 55.392 C 140.839 50.768, 135.959 49.045, 128.899 49.022 C 121.256 48.997, 117.149 50.197, 111.320 54.159 C 109.021 55.721, 106.465 57, 105.640 57 C 104.784 57, 102.285 53.509, 99.820 48.869 C 97.444 44.396, 94.125 39.685, 92.445 38.399 C 84.842 32.579, 73.450 29.952, 66.615 32.442 M 63.584 36.144 C 57.469 40.319, 53.492 47.159, 51.384 57.130 C 49.488 66.094, 50.137 73.365, 53.408 79.816 C 56.220 85.360, 58.290 87.387, 63.254 89.462 C 68.243 91.546, 71.584 91.316, 77.500 88.481 C 80.744 86.927, 81.502 86.292, 79.660 86.674 C 76.987 87.227, 76.896 87.139, 78.122 85.177 C 79.943 82.260, 78.843 81.667, 74.194 83.060 C 62.863 86.455, 54.072 78.294, 54.022 64.333 C 53.994 56.614, 56.489 50.534, 61.483 46.149 C 68.067 40.368, 73.793 39.507, 80.500 43.288 C 86.553 46.701, 90.233 53.020, 92.891 64.566 C 94.148 70.030, 95.384 75.260, 95.637 76.189 C 96.057 77.736, 96.448 77.753, 100.298 76.393 C 103.222 75.361, 106.782 75.064, 112 75.416 C 116.477 75.718, 120.802 75.457, 122.731 74.767 C 125.215 73.879, 127.096 73.903, 130.870 74.870 C 134.599 75.826, 137.218 75.867, 141.767 75.042 C 145.375 74.388, 148.698 74.304, 150.128 74.832 C 151.432 75.313, 153.738 76.007, 155.250 76.373 C 157.784 76.986, 158 76.804, 158 74.053 C 158 72.411, 158.655 69.590, 159.455 67.784 C 160.255 65.978, 161.589 62.025, 162.420 59 C 165.968 46.086, 178.462 38.657, 188.300 43.612 C 198.870 48.936, 204.642 62.956, 200.674 73.670 C 197.396 82.521, 189.540 86.302, 179.671 83.780 C 174.099 82.355, 173.864 82.371, 174.327 84.144 C 174.594 85.164, 174.404 86.250, 173.906 86.558 C 172.101 87.673, 173.089 88.637, 177.750 90.307 C 187.737 93.887, 195.359 91.704, 200.681 83.740 C 206.717 74.709, 207.071 61.460, 201.598 49.454 C 194.988 34.955, 184.321 30.903, 169.738 37.352 C 163.285 40.206, 159.821 44.200, 156.132 53.041 C 154.594 56.726, 152.743 59.618, 151.806 59.799 C 150.904 59.972, 148.124 58.555, 145.628 56.649 C 134.704 48.311, 122.128 48.480, 109.846 57.131 C 105.087 60.482, 103.539 59.678, 99.483 51.750 C 97.443 47.763, 94.416 43.067, 92.756 41.316 C 88.894 37.244, 81.134 33.910, 74.053 33.281 C 68.992 32.832, 68.064 33.085, 63.584 36.144 M 69.942 45.948 C 65.080 47.423, 63.052 49.055, 60.352 53.662 C 57.087 59.234, 56.023 70.860, 58.441 74.550 C 60.921 78.336, 63.073 80, 65.488 80 C 66.778 80, 68 80.500, 68.204 81.112 C 68.699 82.596, 77.923 79.487, 79.525 77.296 C 80.454 76.027, 81.711 75.826, 85.487 76.343 L 90.272 76.999 89.505 72.249 C 89.083 69.637, 88.459 65.475, 88.118 63 C 87.260 56.774, 83.694 50.544, 79.265 47.534 C 75.359 44.880, 74.143 44.673, 69.942 45.948 M 176.223 47.661 C 174.420 48.549, 171.859 50.568, 170.531 52.146 C 167.866 55.313, 163 70.012, 163 74.895 C 163 77.912, 163.129 78, 167.535 78 C 170.030 78, 173.067 78.650, 174.285 79.445 C 175.503 80.239, 178.666 81.372, 181.314 81.963 C 185.445 82.885, 186.759 82.758, 190.576 81.070 C 193.022 79.987, 195.312 78.292, 195.664 77.301 C 196.016 76.310, 196.972 74.722, 197.788 73.771 C 198.997 72.363, 199.070 71.250, 198.184 67.771 C 196.687 61.893, 196.199 57.005, 197.169 57.605 C 197.614 57.879, 197.710 57.408, 197.384 56.558 C 197.057 55.707, 196.470 55.209, 196.079 55.451 C 195.687 55.693, 194.557 54.520, 193.567 52.845 C 191.743 49.756, 185.154 46.043, 181.500 46.045 C 180.400 46.045, 178.025 46.772, 176.223 47.661 M 198.079 60.583 C 198.127 61.748, 198.364 61.985, 198.683 61.188 C 198.972 60.466, 198.936 59.603, 198.604 59.271 C 198.272 58.939, 198.036 59.529, 198.079 60.583 M 198.564 66.293 C 198.940 67.279, 199.499 67.834, 199.807 67.526 C 200.115 67.219, 199.808 66.412, 199.124 65.733 C 198.136 64.753, 198.022 64.868, 198.564 66.293 M 182 66.704 C 179.306 67.684, 175 72.331, 175 74.258 C 175 75.770, 175.666 75.436, 178.368 72.571 C 180.810 69.982, 182.581 69, 184.809 69 C 186.499 69, 188.160 69.450, 188.500 70 C 189.425 71.497, 191 71.205, 191 69.535 C 191 66.851, 185.956 65.264, 182 66.704 M 65.494 69.006 C 63.169 71.575, 64.364 72.886, 66.921 70.571 C 68.619 69.035, 69.200 68.986, 71.677 70.170 C 73.292 70.941, 74.637 72.478, 74.820 73.759 C 75.166 76.186, 78 76.914, 78 74.577 C 78 73.794, 76.835 71.769, 75.411 70.077 C 72.350 66.438, 68.222 65.993, 65.494 69.006 M 143.762 76.707 C 145.006 76.946, 146.806 76.937, 147.762 76.687 C 148.718 76.437, 147.700 76.241, 145.500 76.252 C 143.300 76.263, 142.518 76.468, 143.762 76.707 M 96.329 84.458 C 92.263 86.226, 91 88.677, 91 94.799 C 91 103.793, 97.302 107.865, 109.296 106.622 C 118.525 105.665, 120.684 103.706, 122.101 95 C 123.097 88.888, 122.288 86.200, 118.932 84.465 C 115.264 82.568, 100.684 82.563, 96.329 84.458 M 136.455 85.455 C 133.605 88.304, 133.250 92.649, 135.510 97.020 C 137.627 101.113, 140.418 102.294, 147.974 102.294 C 155.119 102.294, 159.839 100.496, 162.439 96.783 C 164.067 94.459, 164.518 88.363, 163.214 86.313 C 161.786 84.067, 156.851 83, 147.889 83 C 139.688 83, 138.696 83.213, 136.455 85.455 M 146.869 89.342 C 148.317 91.087, 147.087 92.317, 145.342 90.869 C 144.326 90.026, 144 90.101, 144 91.178 C 144 94.468, 148.301 96.264, 149.389 93.428 C 150.097 91.585, 148.414 88, 146.842 88 C 146.073 88, 146.080 88.392, 146.869 89.342 M 107.975 91.220 C 106.950 93.419, 106.950 94.234, 107.975 95.470 C 108.674 96.312, 109.640 97, 110.122 97 C 111.195 97, 111.153 93.228, 110.052 90.500 C 109.293 88.621, 109.167 88.664, 107.975 91.220 M 126.108 99.485 C 124.779 104.765, 120.728 109.798, 116.329 111.636 C 114.533 112.386, 110.125 113, 106.532 113 C 102.939 113, 100 113.408, 100 113.906 C 100 114.405, 102.515 122.132, 105.588 131.079 C 111.237 147.521, 117.911 163.209, 119.738 164.338 C 120.285 164.676, 121.538 164.063, 122.521 162.976 C 123.505 161.889, 125.333 161, 126.584 161 C 128.874 161, 132 163.350, 132 165.071 C 132 169.121, 136.645 160.813, 141.823 147.500 C 142.893 144.750, 146.227 134.804, 149.232 125.398 L 154.697 108.296 147.313 108.219 C 138.219 108.125, 134.311 106.164, 131.500 100.283 C 128.740 94.510, 127.410 94.313, 126.108 99.485 M 145.578 143.333 C 141.138 155.919, 136.262 166.021, 133.242 168.893 L 130.500 171.500 134.265 171.811 C 138.043 172.124, 164.058 169.276, 164.873 168.460 C 165.112 168.221, 163.411 165.322, 161.093 162.017 C 156.248 155.110, 151.485 145.101, 150.471 139.697 C 150.087 137.651, 149.478 135.795, 149.116 135.572 C 148.755 135.349, 147.163 138.841, 145.578 143.333 M 104.635 142.193 C 103.182 152.475, 103.750 167.407, 105.913 175.751 C 110.739 194.375, 118.552 210.921, 125.133 216.458 C 131.550 221.858, 149.541 229, 156.727 229 C 160.915 229, 166.652 222.525, 169.880 214.156 C 173.953 203.594, 174.541 201, 172.863 201 C 172.119 201, 163.961 202.170, 154.734 203.599 C 145.507 205.028, 137.365 205.970, 136.640 205.692 C 135.824 205.379, 134.246 199.464, 132.495 190.147 C 129.933 176.522, 129.501 175.197, 127.906 176.050 C 125.387 177.399, 123.087 176.199, 122.327 173.140 C 121.966 171.688, 120.358 168.860, 118.753 166.855 C 117.148 164.851, 113.452 157.513, 110.539 150.548 L 105.244 137.886 104.635 142.193 M 155.596 148.500 C 157.339 153.349, 161.308 159, 162.970 159 C 163.949 159, 166.156 159.281, 167.875 159.625 C 170.686 160.187, 171 160.007, 171 157.832 C 171 155.792, 170.258 155.217, 166.250 154.150 C 163.527 153.426, 160.087 151.523, 158.189 149.693 C 155.705 147.298, 155.057 147, 155.596 148.500 M 97.893 151.823 C 94.655 153.906, 86 163.942, 86 165.614 C 86 166.292, 87.184 168.253, 88.631 169.973 L 91.261 173.099 92.999 170.300 C 93.954 168.760, 96.370 166.076, 98.368 164.335 C 101.733 161.404, 102 160.760, 102 155.585 C 102 152.513, 101.662 150.033, 101.250 150.073 C 100.838 150.113, 99.327 150.901, 97.893 151.823 M 173.678 156.656 C 173.305 157.028, 173 158.328, 173 159.544 C 173 161.574, 172.630 161.713, 168.481 161.245 C 164.587 160.806, 164.048 160.963, 164.591 162.376 C 164.937 163.279, 166.408 164.270, 167.860 164.578 C 169.312 164.886, 171.585 165.581, 172.912 166.122 C 174.787 166.886, 175.678 166.727, 176.912 165.410 C 178.368 163.856, 178.355 163.767, 176.750 164.327 C 175.601 164.728, 175 164.433, 175 163.469 C 175 162.503, 176.028 162, 178 162 C 181.421 162, 181.809 163.448, 179.191 166.436 C 176.940 169.004, 174.936 173.602, 175.724 174.390 C 176.292 174.959, 186.133 166.400, 186.853 164.711 C 187.982 162.063, 175.750 154.584, 173.678 156.656 M 217.085 160.250 C 216.617 161.488, 216.489 162.928, 216.800 163.451 C 217.112 163.974, 217.570 163.749, 217.818 162.951 C 218.067 162.153, 218.675 160.713, 219.170 159.750 C 219.754 158.614, 219.696 158, 219.003 158 C 218.416 158, 217.553 159.012, 217.085 160.250 M 206.690 166.730 C 205.211 169.057, 203.996 171.532, 203.990 172.230 C 203.967 175.308, 198.961 183.818, 195.157 187.247 C 192.871 189.308, 191 191.409, 191 191.916 C 191 192.422, 192.597 193.824, 194.548 195.030 C 197.893 197.097, 198.204 197.126, 199.965 195.532 C 201.496 194.146, 202.233 194.054, 204.044 195.024 C 206.956 196.582, 207.901 195.092, 208.183 188.500 C 208.301 185.750, 208.485 181.475, 208.592 179 C 208.700 176.525, 209.203 172.925, 209.710 171 C 210.218 169.075, 210.351 166.375, 210.007 165 C 209.396 162.564, 209.311 162.608, 206.690 166.730 M 214.064 166.500 C 213.363 168.150, 212.142 171.018, 211.352 172.874 C 209.037 178.307, 210.626 177.672, 213.491 172.019 C 214.934 169.170, 215.941 166.087, 215.728 165.169 C 215.446 163.955, 214.992 164.319, 214.064 166.500 M 96.578 169.180 C 94.610 171.479, 93 173.729, 93 174.180 C 93 174.631, 92.334 175, 91.520 175 C 88.561 175, 83 189.732, 83 197.573 C 83 201.167, 83.346 201.870, 85.367 202.377 C 86.670 202.704, 89.124 204.392, 90.822 206.129 C 93.772 209.146, 94.157 209.257, 99.528 208.626 C 104.685 208.020, 113 204.774, 113 203.368 C 113 203.043, 111.470 198.664, 109.599 193.638 C 107.729 188.612, 105.142 180.114, 103.849 174.754 C 102.557 169.393, 101.198 165.005, 100.828 165.004 C 100.458 165.002, 98.546 166.881, 96.578 169.180 M 169.817 168.750 C 169.588 169.713, 169.648 171.725, 169.950 173.222 C 170.601 176.445, 172.371 175.785, 173.906 171.748 C 174.771 169.472, 174.631 168.873, 173.034 168.018 C 170.504 166.664, 170.302 166.710, 169.817 168.750 M 151.500 172.514 C 146 173.227, 139.363 173.853, 136.750 173.905 C 131.126 174.017, 131.277 173.204, 134.081 188.298 C 136.919 203.573, 137.221 204.215, 141.249 203.570 C 143.037 203.284, 151.025 202.061, 159 200.852 C 166.975 199.643, 173.654 198.541, 173.842 198.402 C 174.030 198.263, 173.634 196.630, 172.962 194.772 C 171.768 191.469, 171.614 191.395, 166.120 191.447 C 161.136 191.494, 160.466 191.260, 160.198 189.380 C 159.996 187.966, 160.541 187.092, 161.837 186.753 C 164.139 186.151, 165.411 186.864, 166.292 189.250 C 166.647 190.213, 167.456 191, 168.091 191 C 168.943 191, 168.953 190.649, 168.131 189.658 C 167.519 188.920, 167.241 188.092, 167.515 187.819 C 167.788 187.545, 167.110 186.504, 166.006 185.506 C 163.444 183.187, 163.458 180.801, 166.047 178.457 C 167.323 177.303, 167.983 175.642, 167.797 174.052 C 167.429 170.888, 165.467 170.703, 151.500 172.514 M 83.734 178.750 C 80.952 186.267, 78 197.194, 78 199.974 C 78 201.484, 76.129 202.981, 74 203.174 C 73.425 203.227, 67.749 207.119, 67 207.975 C 66.725 208.289, 65.223 209.359, 63.663 210.353 C 59.218 213.184, 61.342 213.465, 66.171 210.684 C 72.365 207.118, 78.541 206.283, 81.198 208.652 C 83.262 210.491, 83.269 210.483, 82.558 207 C 80.645 197.620, 80.911 193.636, 84.027 185 C 87.931 174.179, 88.468 172, 87.232 172 C 86.682 172, 85.108 175.037, 83.734 178.750 M 180.150 174.319 C 178.359 176.478, 179.533 181.442, 182.548 184.457 C 183.852 185.761, 185.211 187.992, 185.568 189.414 C 185.925 190.836, 186.668 192, 187.220 192 C 188.727 192, 187.236 185.510, 184.159 178.675 C 181.810 173.458, 181.313 172.918, 180.150 174.319 M 171 177.736 C 166.637 179.935, 166.302 183.031, 170.275 184.428 C 172.638 185.259, 173.426 185.028, 175.577 182.877 C 178.038 180.417, 178.057 180.293, 176.302 178.161 C 174.534 176.013, 174.434 176.005, 171 177.736 M 142.250 183.662 C 141.563 183.940, 141 184.836, 141 185.655 C 141 186.937, 141.218 186.925, 142.571 185.571 C 143.436 184.707, 144.508 184, 144.955 184 C 146.259 184, 146.989 188.205, 145.982 189.925 C 145.170 191.313, 145.057 191.292, 145.030 189.750 C 145.014 188.787, 144.550 188, 144 188 C 143.450 188, 143 188.858, 143 189.906 C 143 191.320, 142.483 191.678, 141 191.290 C 139.882 190.997, 139 191.259, 139 191.883 C 139 193.088, 140.110 193.340, 143.962 193.011 C 147.138 192.740, 149.040 190.145, 148.295 187.101 C 147.890 185.444, 148.063 184.921, 148.854 185.410 C 149.484 185.799, 150 185.694, 150 185.176 C 150 183.587, 144.903 182.592, 142.250 183.662 M 175.500 186.657 C 173.552 188.208, 173.565 188.232, 176 187.553 C 177.375 187.169, 179.063 186.813, 179.750 186.761 C 180.438 186.709, 181 186.292, 181 185.833 C 181 184.452, 177.635 184.956, 175.500 186.657 M 150.667 186.667 C 150.300 187.033, 150 188.158, 150 189.167 C 150 190.175, 149.550 191, 149 191 C 148.450 191, 148 191.408, 148 191.906 C 148 192.405, 148.925 192.571, 150.057 192.275 C 151.277 191.956, 151.900 191.181, 151.588 190.369 C 151.294 189.602, 151.695 189, 152.500 189 C 153.367 189, 153.709 189.595, 153.362 190.500 C 153.045 191.325, 153.284 192, 153.893 192 C 155.371 192, 155.307 188.707, 153.800 187.200 C 152.441 185.841, 151.631 185.703, 150.667 186.667 M 156 188.066 C 156 189.906, 158.063 193.079, 158.916 192.552 C 160.218 191.747, 158.908 187, 157.383 187 C 156.623 187, 156 187.480, 156 188.066 M 162.333 189.456 C 162.333 190.257, 162.708 190.680, 163.167 190.397 C 163.625 190.114, 164 189.459, 164 188.941 C 164 188.423, 163.625 188, 163.167 188 C 162.708 188, 162.333 188.655, 162.333 189.456 M 179.583 188.750 C 179.171 189.162, 178.308 189.500, 177.667 189.500 C 177.025 189.500, 176.356 191.263, 176.180 193.419 L 175.859 197.337 178.180 195.653 C 179.456 194.727, 181.512 193.454, 182.750 192.824 C 185.297 191.528, 185.925 188.431, 183.448 189.382 C 182.558 189.723, 182.157 189.555, 182.507 188.989 C 183.216 187.841, 180.698 187.636, 179.583 188.750 M 174.079 192.583 C 174.127 193.748, 174.364 193.985, 174.683 193.188 C 174.972 192.466, 174.936 191.603, 174.604 191.271 C 174.272 190.939, 174.036 191.529, 174.079 192.583 M 181.763 195.565 C 178.570 197.298, 177.111 199.917, 174 209.500 C 171.132 218.334, 169.724 221.106, 165.878 225.487 C 162.072 229.821, 163.535 230.063, 172 226.500 C 179.427 223.374, 183.876 223.378, 191.500 226.519 C 194.800 227.879, 197.725 228.989, 198 228.987 C 198.275 228.985, 196.102 226.737, 193.172 223.992 C 190.241 221.246, 186.979 219, 185.922 219 C 183.575 219, 183.570 219.265, 186 214.236 C 187.100 211.959, 188 209.245, 188 208.203 C 188 205.780, 191.057 203, 193.722 203 C 195.837 203, 197.457 200.549, 196.435 198.895 C 195.554 197.469, 188.296 193.995, 186.290 194.040 C 185.305 194.062, 183.268 194.748, 181.763 195.565 M 200.140 198.550 C 197.493 201.914, 196.489 206.679, 198.034 208.541 C 200.043 210.962, 201.389 210.155, 203.750 205.114 C 206.495 199.254, 206.530 198.354, 204.071 197.038 C 202.502 196.198, 201.767 196.480, 200.140 198.550 M 208.805 198.500 C 208.429 200.150, 207.843 202.625, 207.502 204 C 207.134 205.486, 207.450 207.266, 208.281 208.390 C 210.191 210.974, 210.660 209.100, 210.005 201.500 C 209.572 196.473, 209.378 195.986, 208.805 198.500 M 68.500 201 C 68.840 201.550, 69.568 202, 70.118 202 C 70.668 202, 70.840 201.550, 70.500 201 C 70.160 200.450, 69.432 200, 68.882 200 C 68.332 200, 68.160 200.450, 68.500 201 M 221.989 207.250 C 220.899 209.037, 220.006 210.838, 220.004 211.250 C 219.995 212.970, 221.071 211.757, 222.886 208 C 225.217 203.175, 224.725 202.763, 221.989 207.250 M 191.412 205.765 C 190.814 206.169, 189.764 208.750, 189.079 211.500 L 187.834 216.500 193.483 221.768 L 199.131 227.035 203.316 224.533 C 206.563 222.592, 207.426 221.524, 207.168 219.766 C 206.638 216.139, 204.333 213.300, 201.307 212.545 C 197.710 211.647, 195 209.198, 195 206.845 C 195 204.954, 193.349 204.458, 191.412 205.765 M 109.628 207.719 C 108.048 208.548, 103.472 209.738, 99.459 210.363 C 89.819 211.865, 88.488 213.445, 97.500 212.689 C 106.474 211.936, 115 209.389, 115 207.461 C 115 205.667, 113.392 205.744, 109.628 207.719 M 57.721 209.040 C 58.225 210.968, 58.357 210.987, 60.127 209.385 C 62.536 207.205, 62.490 207, 59.594 207 C 57.664 207, 57.293 207.404, 57.721 209.040 M 218 215 C 217.411 216.100, 217.155 217, 217.430 217 C 217.705 217, 218.411 216.100, 219 215 C 219.589 213.900, 219.845 213, 219.570 213 C 219.295 213, 218.589 213.900, 218 215 M 209 220.500 C 209 221.875, 209.402 223, 209.893 223 C 211.059 223, 212.167 220.079, 211.444 218.910 C 210.355 217.147, 209 218.029, 209 220.500 M 202.496 227.250 C 198.491 230.695, 198.997 237.898, 203.250 237.985 C 203.662 237.993, 204.003 236.762, 204.007 235.250 C 204.010 233.738, 204.907 231.150, 206 229.500 C 207.093 227.850, 207.990 226.162, 207.993 225.750 C 208.007 224.248, 205.048 225.055, 202.496 227.250 M 207.407 232.555 C 205.965 235.593, 205.913 236.469, 207.049 238.591 C 207.780 239.957, 209.048 240.945, 209.867 240.787 C 213.054 240.173, 213.623 229, 210.467 229 C 209.712 229, 208.335 230.600, 207.407 232.555" stroke="none" fill-rule="evenodd" fill-opacity="1"/>
	<path fill="#212121" d="M 65.960 32.820 C 62.034 34.553, 57.077 39.442, 54.562 44.063 C 53.044 46.853, 52.001 49.334, 52.244 49.578 C 52.488 49.821, 53.481 48.260, 54.451 46.108 C 56.774 40.957, 62.774 35.198, 67.615 33.472 C 69.752 32.711, 70.600 32.100, 69.500 32.114 C 68.400 32.129, 66.807 32.446, 65.960 32.820 M 75.750 32.662 C 76.438 32.940, 77.563 32.940, 78.250 32.662 C 78.938 32.385, 78.375 32.158, 77 32.158 C 75.625 32.158, 75.063 32.385, 75.750 32.662 M 81.500 34 C 84.249 35.181, 85.828 35.181, 84 34 C 83.175 33.467, 81.825 33.055, 81 33.086 C 80.011 33.122, 80.181 33.433, 81.500 34 M 171.097 35.179 C 163.877 37.952, 158.130 43.913, 155.099 51.774 C 153.779 55.198, 152.137 58, 151.450 58 C 150.763 58, 147.882 56.440, 145.049 54.533 C 133.757 46.934, 122.898 47.035, 110.568 54.855 C 104.759 58.539, 104.174 58.268, 99.979 49.959 C 96.694 43.450, 92.729 38.432, 89.642 36.874 C 88.464 36.279, 89.120 37.166, 91.099 38.845 C 93.078 40.523, 96.357 45.054, 98.385 48.913 C 104.216 60.009, 104.617 60.180, 112.500 54.930 C 118.408 50.995, 123.439 49.681, 130.440 50.243 C 137.044 50.773, 141.292 52.539, 147.274 57.240 C 151.939 60.906, 152.991 60.255, 156.200 51.718 C 159.113 43.967, 164.102 38.854, 171.423 36.115 C 185.408 30.882, 194.754 34.926, 202.355 49.500 C 203.216 51.150, 203.938 52.145, 203.960 51.710 C 204.034 50.252, 200.121 43.297, 197.422 40.090 C 191.436 32.976, 181.608 31.143, 171.097 35.179 M 69.554 41.727 C 65.800 42.682, 60.221 46.907, 58.028 50.454 C 54.861 55.580, 53.406 65.313, 54.962 70.964 C 56.235 75.584, 62.576 83.051, 65.132 82.941 C 65.988 82.904, 65.763 82.437, 64.530 81.691 C 58.934 78.307, 55 71.340, 55 64.815 C 55 60.443, 57.982 52.175, 60.742 48.895 C 62.222 47.135, 65.361 44.843, 67.717 43.801 C 70.073 42.759, 72 41.702, 72 41.453 C 72 41.204, 71.888 41.052, 71.750 41.116 C 71.612 41.180, 70.624 41.455, 69.554 41.727 M 73.500 42 C 73.840 42.550, 74.855 43, 75.755 43 C 78.584 43, 84.553 47.859, 86.940 52.107 C 89.257 56.230, 94.364 75.969, 93.371 76.962 C 93.075 77.258, 90.538 77.402, 87.734 77.281 C 84.050 77.123, 81.714 77.632, 79.315 79.114 C 77.489 80.243, 73.858 81.553, 71.247 82.026 L 66.500 82.885 71 82.541 C 73.475 82.352, 76.400 82.040, 77.500 81.848 C 79.002 81.587, 79.483 82.035, 79.431 83.649 C 79.387 85.033, 79.832 85.618, 80.681 85.292 C 81.407 85.014, 81.998 85.397, 81.995 86.143 C 81.992 86.889, 80.305 88.287, 78.245 89.249 C 76.185 90.212, 75.400 90.699, 76.500 90.333 C 77.600 89.967, 79.850 89.630, 81.500 89.584 C 84.377 89.503, 84.548 89.741, 85.660 95.375 C 87.174 103.046, 89.437 107.089, 93.881 110.061 C 95.871 111.393, 97.831 112.936, 98.235 113.491 C 98.728 114.169, 98.974 114.167, 98.985 113.487 C 98.994 112.891, 102.193 112.474, 106.750 112.473 C 117.971 112.473, 122.639 109.249, 125.533 99.500 C 127.031 94.454, 128.800 94.429, 131.433 99.415 C 134.879 105.940, 137.900 107.500, 147.093 107.500 L 155.045 107.500 154.491 110.500 L 153.938 113.500 155.394 110.315 C 156.194 108.563, 158.179 106.441, 159.805 105.601 C 164.164 103.347, 167.721 98.612, 168.494 94.035 C 169.269 89.448, 170.689 89.007, 176.654 91.500 C 178.629 92.325, 180.977 92.975, 181.872 92.945 C 182.767 92.915, 180.688 91.928, 177.250 90.752 C 171.282 88.711, 169.166 87, 172.608 87 C 173.846 87, 174.065 86.393, 173.557 84.370 C 172.958 81.985, 173.112 81.804, 175.198 82.426 C 181.088 84.181, 189.496 84.128, 192.966 82.313 C 198.840 79.240, 202.669 69.874, 200.972 62.729 C 200.326 60.011, 200.188 60.450, 200.101 65.500 C 199.981 72.391, 197.835 77.378, 193.677 80.429 C 190.078 83.068, 180.157 83.281, 175 80.829 C 173.075 79.913, 168.912 78.870, 165.750 78.510 L 160 77.856 160 73.487 C 160 71.084, 160.419 68.859, 160.932 68.542 C 161.445 68.225, 162.435 65.414, 163.133 62.295 C 164.688 55.349, 169.318 48.308, 174 45.773 C 176.539 44.397, 178.921 43.983, 182.678 44.265 C 189.142 44.749, 194.048 48.247, 197.464 54.809 C 198.808 57.389, 199.926 58.825, 199.950 58 C 200.001 56.218, 197.098 51.393, 194.091 48.261 C 186.287 40.130, 173.488 41.236, 167.074 50.597 C 164.486 54.374, 159.135 68.491, 158.298 73.750 L 157.781 77 150.141 76.969 C 145.938 76.952, 139.125 76.453, 135 75.859 C 130.875 75.266, 126.600 74.877, 125.500 74.994 C 124.400 75.112, 119.225 75.308, 114 75.429 C 104.392 75.652, 99.519 76.473, 97.262 78.251 C 95.754 79.438, 95.810 79.586, 92.511 65.645 C 89.629 53.466, 88.421 50.681, 84.339 46.803 C 80.691 43.338, 71.926 39.454, 73.500 42 M 50.624 52.539 C 50.281 53.432, 50.041 55.139, 50.090 56.332 C 50.154 57.868, 50.462 57.521, 51.147 55.140 C 52.143 51.679, 51.734 49.645, 50.624 52.539 M 204.679 55.500 C 205.028 57.150, 205.623 62.100, 206.002 66.500 L 206.690 74.500 206.768 67.500 C 206.811 63.650, 206.216 58.700, 205.445 56.500 C 204.568 53.997, 204.282 53.623, 204.679 55.500 M 49.336 66 C 49.336 70.125, 49.513 71.813, 49.728 69.750 C 49.944 67.688, 49.944 64.313, 49.728 62.250 C 49.513 60.188, 49.336 61.875, 49.336 66 M 66.891 68.641 C 65.640 70.157, 65.702 70.222, 67.500 69.282 C 70.237 67.851, 73.549 69.282, 75.399 72.695 C 76.236 74.238, 76.938 74.963, 76.960 74.306 C 77.019 72.556, 72.834 68.257, 70.391 67.558 C 69.045 67.173, 67.779 67.565, 66.891 68.641 M 179.077 69.589 C 177.385 71.013, 176 72.553, 176 73.012 C 176 73.471, 177.315 72.531, 178.923 70.923 C 182.023 67.823, 186.621 67.021, 188.800 69.200 C 189.603 70.003, 190 70.038, 190 69.307 C 190 68.706, 189.288 67.941, 188.418 67.607 C 185.242 66.388, 182.084 67.058, 179.077 69.589 M 50.086 75 C 50.055 75.825, 50.467 77.175, 51 78 C 52.181 79.828, 52.181 78.249, 51 75.500 C 50.433 74.181, 50.122 74.011, 50.086 75 M 148.813 75.683 C 149.534 75.972, 150.397 75.936, 150.729 75.604 C 151.061 75.272, 150.471 75.036, 149.417 75.079 C 148.252 75.127, 148.015 75.364, 148.813 75.683 M 202.500 81.406 C 198.933 88.430, 196.026 90.800, 188.850 92.536 C 185.907 93.247, 184.400 93.866, 185.500 93.909 C 189.057 94.051, 194.866 91.983, 197.765 89.544 C 200.629 87.135, 206.423 77.560, 205.825 76.226 C 205.646 75.827, 204.150 78.158, 202.500 81.406 M 105.800 79.200 C 106.733 80.133, 107.267 80.133, 108.200 79.200 C 109.133 78.267, 108.867 78, 107 78 C 105.133 78, 104.867 78.267, 105.800 79.200 M 111 79 C 111 79.550, 111.675 80, 112.500 80 C 113.325 80, 114 79.550, 114 79 C 114 78.450, 113.325 78, 112.500 78 C 111.675 78, 111 78.450, 111 79 M 53.679 82.866 C 56.813 88.659, 61.324 91.353, 68.348 91.625 L 74.500 91.864 68.247 91.084 C 62.322 90.345, 59.345 88.823, 56.341 85 C 52.292 79.846, 51.856 79.497, 53.679 82.866 M 99.297 83.094 C 91.291 85.009, 87.998 92.272, 91.421 100.466 C 93.601 105.682, 97.634 107.261, 107.720 106.847 C 115.759 106.517, 116.301 106.347, 119.011 103.313 C 123.968 97.766, 124.278 87.539, 119.584 84.463 C 116.623 82.523, 104.973 81.737, 99.297 83.094 M 138.400 83.428 C 134.902 84.951, 134 86.632, 134 91.631 C 134 99.937, 139.408 103.694, 149.984 102.735 C 157.014 102.098, 161.498 99.871, 163.483 96.033 C 166.444 90.307, 164.972 85.851, 159.342 83.498 C 154.877 81.633, 142.618 81.592, 138.400 83.428 M 148.136 90.250 C 148.061 91.213, 147.325 92, 146.500 92 C 144.758 92, 144.503 93.575, 146.087 94.554 C 147.748 95.580, 149.223 93.514, 148.721 90.865 C 148.447 89.421, 148.219 89.181, 148.136 90.250 M 108 93.500 C 108 95.056, 108.567 96, 109.500 96 C 111.114 96, 111.353 95.084, 110.393 92.582 C 109.459 90.147, 108 90.707, 108 93.500 M 198.813 96.683 C 199.534 96.972, 200.397 96.936, 200.729 96.604 C 201.061 96.272, 200.471 96.036, 199.417 96.079 C 198.252 96.127, 198.015 96.364, 198.813 96.683 M 152.628 115.750 C 146.268 137.714, 138.600 158.384, 134.475 164.678 L 132.733 167.338 131.370 164.737 C 129.267 160.723, 126.079 160.206, 123.307 163.430 C 122.036 164.907, 120.537 165.832, 119.976 165.485 C 117.387 163.885, 108.038 141.512, 101.920 122.273 C 100.655 118.298, 99.417 115.250, 99.168 115.499 C 98.918 115.749, 99.696 118.859, 100.895 122.410 C 102.645 127.590, 103.020 130.709, 102.788 138.167 L 102.500 147.465 99.106 149.482 C 95.117 151.854, 85.284 161.743, 84.460 164.212 C 84.146 165.154, 84.357 166.799, 84.930 167.869 C 85.720 169.346, 85.473 170.937, 83.902 174.490 C 82.764 177.062, 82.048 179.381, 82.311 179.644 C 82.573 179.907, 83.582 178.044, 84.552 175.504 C 86.082 171.496, 86.504 171.076, 87.747 172.319 C 88.991 173.562, 88.960 174.176, 87.516 176.969 C 86.601 178.738, 86.050 180.383, 86.292 180.625 C 86.533 180.867, 87.296 179.700, 87.987 178.032 C 88.677 176.364, 89.878 175, 90.655 175 C 91.432 175, 92.975 173.462, 94.084 171.582 C 95.898 168.507, 100.708 164.336, 101.478 165.170 C 101.645 165.352, 103.163 170.695, 104.850 177.045 C 106.537 183.394, 109.284 191.944, 110.955 196.045 C 112.626 200.145, 113.995 203.602, 113.997 203.726 C 113.998 203.850, 112.313 204.843, 110.250 205.932 C 108.188 207.021, 106.950 207.916, 107.500 207.920 C 108.050 207.925, 109.625 207.286, 111 206.500 C 112.375 205.714, 113.789 205.055, 114.143 205.035 C 115.490 204.961, 116.009 208.383, 114.784 209.264 C 113.848 209.938, 113.955 210.044, 115.178 209.653 C 116.319 209.289, 118.035 210.557, 120.545 213.621 C 124.156 218.027, 131.699 223.634, 132.687 222.646 C 132.962 222.372, 131.815 221.439, 130.140 220.572 C 123.274 217.022, 117.053 208.577, 111.797 195.671 C 107.648 185.484, 102.009 163.596, 103.093 161.884 C 103.575 161.123, 103.976 154.672, 103.985 147.550 C 103.993 140.427, 104.369 135.027, 104.819 135.550 C 105.270 136.072, 106.913 139.875, 108.471 144 C 112.102 153.612, 118.387 166.247, 120.349 167.875 C 121.186 168.570, 122.168 170.488, 122.530 172.137 C 123.290 175.598, 125.480 176.806, 128.068 175.190 C 129.691 174.176, 129.988 174.636, 131.031 179.782 C 133.045 189.717, 133.797 192.560, 133.864 190.500 C 133.900 189.400, 133.306 185.588, 132.543 182.029 C 131.780 178.469, 131.338 175.262, 131.562 174.900 C 131.785 174.538, 137.263 173.701, 143.734 173.039 C 150.205 172.377, 157.660 171.423, 160.299 170.918 C 167.853 169.473, 168 169.533, 168 174.031 C 168 176.692, 167.490 178.258, 166.500 178.638 C 164.254 179.500, 164.692 183.362, 167.314 185.826 C 170.175 188.513, 171.395 188.537, 175.519 185.988 C 178.596 184.087, 182 184.149, 182 186.107 C 182 186.598, 182.563 186.986, 183.250 186.968 C 183.938 186.951, 183.327 185.903, 181.893 184.640 C 178.379 181.543, 177.324 175.922, 179.831 173.653 C 181.611 172.042, 181.821 172.260, 184.734 178.735 C 186.408 182.456, 188.041 186.963, 188.364 188.750 C 188.887 191.653, 188.702 192, 186.625 192 C 185.346 192, 182.354 193.410, 179.975 195.133 C 177.595 196.857, 174.490 198.618, 173.074 199.047 C 170.675 199.775, 170.653 199.834, 172.750 199.914 C 173.988 199.961, 175 200.371, 175 200.825 C 175 202.303, 170.292 215.534, 168.606 218.795 C 166.340 223.178, 161.085 229, 159.396 229 C 158.628 229, 158 229.450, 158 230 C 158 230.550, 159.688 230.939, 161.750 230.864 C 164.084 230.779, 164.648 230.564, 163.243 230.293 C 161.019 229.865, 161.030 229.816, 164.038 226.808 C 167.561 223.285, 170.970 216.857, 173.482 209 C 176.518 199.500, 178.056 197.012, 182.194 194.901 C 186.539 192.684, 188.374 192.950, 194.229 196.645 C 197.660 198.810, 197.867 199.198, 196.818 201.499 C 196.017 203.258, 194.887 204, 193.008 204 C 190.065 204, 188.560 206.196, 187.569 211.934 C 187.243 213.823, 186.194 216.262, 185.238 217.354 C 183.611 219.212, 183.610 219.299, 185.216 218.714 C 186.393 218.285, 188.809 219.708, 192.904 223.241 C 196.188 226.074, 198.660 228.741, 198.397 229.166 C 198.135 229.591, 195.394 228.822, 192.307 227.457 C 189.220 226.092, 184.850 224.756, 182.597 224.489 C 178.680 224.024, 178.720 224.062, 183.500 225.362 C 192.517 227.813, 198 230.713, 198 233.030 C 198 235.730, 199.748 239, 201.190 239 C 201.821 239, 201.588 238.202, 200.655 237.171 C 197.437 233.615, 199.015 228.078, 203.980 225.510 C 205.586 224.680, 207.148 224, 207.450 224 C 208.528 224, 207.974 227.150, 206.341 230.300 C 205.429 232.060, 204.365 234.902, 203.977 236.615 C 203.360 239.340, 203.631 239.942, 206.148 241.428 C 210.097 243.761, 212.718 242.676, 213.963 238.192 C 214.527 236.162, 215.001 233.825, 215.016 233 C 215.073 229.926, 219.025 222.885, 223.286 218.268 C 225.706 215.646, 228.925 211.189, 230.439 208.365 C 231.953 205.541, 235.006 201.041, 237.222 198.365 C 241.008 193.793, 241.120 193.480, 239.071 193.173 C 237.852 192.991, 235.400 193.983, 233.512 195.423 C 231.654 196.840, 229.711 198, 229.194 198 C 227.268 198, 219.905 207.158, 217.550 212.483 C 214.930 218.407, 214.415 218.755, 211.461 216.595 C 209.614 215.244, 209.606 215.050, 211.257 211.587 C 212.202 209.605, 213.889 202.801, 215.006 196.466 C 216.123 190.131, 218.086 182.148, 219.368 178.724 C 222.272 170.972, 224.409 159.863, 223.529 157.091 C 223.164 155.941, 222.031 155, 221.011 155 C 218.929 155, 211.762 162.806, 212.599 164.161 C 213.317 165.322, 215 164.219, 215 162.587 C 215 160.994, 219.513 156, 220.952 156 C 221.529 156, 222 156.675, 222 157.500 C 222 158.325, 221.640 159, 221.199 159 C 220.303 159, 215.694 168.027, 216.287 168.620 C 216.495 168.828, 217.854 166.861, 219.308 164.249 L 221.951 159.500 221.976 163.168 C 221.989 165.186, 220.403 171.931, 218.451 178.157 C 216.499 184.383, 214.327 192.857, 213.625 196.989 C 212.924 201.120, 212.081 203.825, 211.754 203 C 211.426 202.175, 211.122 203.217, 211.079 205.316 C 211.014 208.457, 209.878 212.136, 208.450 213.831 C 208.297 214.013, 207.233 213.660, 206.086 213.046 C 204.817 212.367, 204 210.941, 204 209.406 C 204 207.978, 204.434 207.150, 205 207.500 C 205.559 207.845, 206 207.077, 206 205.759 C 206 204.462, 206.379 202.973, 206.842 202.450 C 207.305 201.928, 208.237 198.912, 208.913 195.750 C 209.590 192.588, 210.449 189.999, 210.822 189.998 C 211.195 189.997, 211.585 187.558, 211.689 184.578 C 211.799 181.419, 212.737 177.475, 213.939 175.120 C 216.873 169.368, 216.472 168.680, 213.285 173.999 C 210.696 178.320, 210.565 178.399, 209.979 175.999 C 209.633 174.585, 209.050 178.274, 208.636 184.498 C 207.938 195.003, 207.019 198.457, 205.554 196.087 C 204.545 194.456, 200.299 194.779, 199.623 196.539 C 199.116 197.862, 198.468 197.756, 195.024 195.789 C 191.002 193.493, 190.043 191.357, 192.107 189.293 C 192.916 188.484, 192.773 188.229, 191.577 188.343 C 190.467 188.450, 189.119 186.571, 187.384 182.500 C 181.981 169.821, 182.132 171.159, 185.762 168.176 C 187.553 166.704, 189.014 165.026, 189.009 164.446 C 188.995 162.752, 182.727 157.279, 180 156.578 C 178.286 156.138, 178.675 156.581, 181.239 157.986 C 183.295 159.114, 185.700 161.138, 186.582 162.485 C 188.160 164.893, 188.086 165.026, 182.045 170.619 C 177.764 174.582, 176.222 176.622, 176.952 177.352 C 180.139 180.539, 176.474 186, 171.150 186 C 166.881 186, 164.746 182.043, 167.421 179.088 C 168.544 177.847, 169.251 175.183, 169.420 171.563 C 169.661 166.402, 169.495 165.911, 167.315 165.364 C 166.013 165.037, 164.436 163.809, 163.811 162.635 C 163.187 161.461, 161.412 158.923, 159.867 156.995 C 156.241 152.468, 152.420 143.011, 150.912 134.827 C 149.880 129.226, 149.953 127.658, 151.455 123.135 C 152.987 118.524, 153.384 118.062, 154.845 119.189 C 156.378 120.371, 156.380 120.319, 154.880 118.483 C 153.990 117.392, 153.465 115.938, 153.714 115.250 C 153.963 114.563, 153.934 114, 153.651 114 C 153.367 114, 152.907 114.787, 152.628 115.750 M 146.578 138.750 C 143.245 149.474, 136.829 163.831, 133.908 167.103 C 130.964 170.401, 130.140 173, 132.039 173 C 138.844 173, 166 169.112, 166 168.137 C 166 167.762, 164.595 165.751, 162.878 163.668 C 158.177 157.965, 152.250 145.831, 150.847 139.037 C 150.161 135.716, 149.322 133, 148.983 133 C 148.643 133, 147.561 135.588, 146.578 138.750 M 158.954 149.329 C 160.383 150.922, 163.608 152.702, 166.681 153.596 C 171.116 154.885, 171.918 155.476, 171.727 157.314 C 171.602 158.516, 170.600 159.793, 169.500 160.150 C 167.835 160.692, 167.959 160.817, 170.238 160.900 C 172.482 160.982, 172.933 160.607, 172.738 158.822 C 172.567 157.253, 173.170 156.478, 174.894 156.052 C 176.755 155.592, 175.677 155.042, 170.044 153.581 C 166.060 152.548, 161.382 150.554, 159.650 149.149 L 156.500 146.596 158.954 149.329 M 97.987 151.423 C 96.055 152.691, 92.323 156.248, 89.692 159.327 C 85.061 164.747, 84.955 165.013, 86.352 167.715 C 87.146 169.249, 88.730 171.351, 89.872 172.384 C 91.916 174.234, 91.964 174.226, 92.883 171.882 C 93.396 170.572, 95.882 167.494, 98.408 165.042 C 102.822 160.756, 103 160.359, 103 154.792 C 103 151.606, 102.662 149.026, 102.250 149.059 C 101.838 149.091, 99.919 150.155, 97.987 151.423 M 175.559 162.904 C 175.179 163.520, 175.565 164, 176.441 164 C 177.298 164, 178 164.395, 178 164.878 C 178 166.237, 175.402 168.069, 174.605 167.272 C 174.214 166.881, 174.189 167.329, 174.549 168.268 C 174.910 169.207, 174.732 171.331, 174.154 172.987 C 173.518 174.814, 173.477 176, 174.052 176 C 174.573 176, 175 175.195, 175 174.211 C 175 173.228, 175.900 170.657, 177.001 168.498 C 178.704 165.158, 178.796 164.368, 177.619 163.191 C 176.658 162.229, 176.030 162.142, 175.559 162.904 M 205.218 164.750 C 203.670 166.262, 203.326 166.740, 204.452 165.810 C 205.579 164.881, 207.626 163.672, 209.001 163.123 C 210.721 162.437, 210.960 162.107, 209.766 162.063 C 208.812 162.029, 206.765 163.238, 205.218 164.750 M 167 166.882 C 167 167.432, 167.450 168.160, 168 168.500 C 168.550 168.840, 169 168.668, 169 168.118 C 169 167.568, 168.550 166.840, 168 166.500 C 167.450 166.160, 167 166.332, 167 166.882 M 211.558 167.250 C 210.463 170.853, 210.202 173.195, 210.985 172.394 C 212.111 171.241, 213.416 166, 212.577 166 C 212.225 166, 211.766 166.563, 211.558 167.250 M 84.624 183.539 C 84.281 184.432, 84.029 185.689, 84.063 186.332 C 84.098 186.974, 84.558 186.422, 85.085 185.105 C 85.612 183.787, 85.864 182.531, 85.645 182.312 C 85.426 182.093, 84.966 182.645, 84.624 183.539 M 195.924 185.750 L 193.500 188.500 196.250 186.076 C 197.762 184.742, 199 183.505, 199 183.326 C 199 182.541, 198.190 183.180, 195.924 185.750 M 79.571 186.571 C 79.204 188.037, 79.096 189.429, 79.331 189.665 C 79.567 189.900, 80.061 188.894, 80.429 187.429 C 80.796 185.963, 80.904 184.571, 80.669 184.335 C 80.433 184.100, 79.939 185.106, 79.571 186.571 M 82.500 191 C 82.120 192.729, 82.018 194.351, 82.273 194.606 C 82.528 194.861, 83.024 193.632, 83.375 191.875 C 84.209 187.707, 83.401 186.899, 82.500 191 M 211.195 193.500 C 211.215 195.150, 211.439 195.704, 211.693 194.731 C 211.947 193.758, 211.930 192.408, 211.656 191.731 C 211.382 191.054, 211.175 191.850, 211.195 193.500 M 134.158 195 C 134.158 196.375, 134.385 196.938, 134.662 196.250 C 134.940 195.563, 134.940 194.438, 134.662 193.750 C 134.385 193.063, 134.158 193.625, 134.158 195 M 231.190 199.250 C 228.061 202.137, 226.357 203.488, 227.405 202.250 C 230.135 199.025, 227.872 199.464, 224.823 202.750 C 222.152 205.629, 213.753 221.087, 214.471 221.804 C 214.699 222.032, 216.500 219.694, 218.473 216.609 C 222.097 210.944, 224.500 208.661, 221.482 213.750 C 218.293 219.129, 212 227.455, 212 226.296 C 212 225.648, 212.450 224.840, 213 224.500 C 213.550 224.160, 214 223.403, 214 222.819 C 214 222.148, 213.446 222.215, 212.500 223 C 210.747 224.455, 210.453 222.947, 212.158 221.242 C 213.034 220.366, 213.005 219.711, 212.035 218.542 C 210.495 216.687, 208.018 216.509, 207.955 218.250 C 207.930 218.938, 207.357 218.206, 206.682 216.625 C 205.819 214.603, 204.130 213.261, 200.986 212.100 C 198.303 211.109, 196.378 209.724, 196.168 208.634 C 195.855 207.009, 196.038 207.038, 197.909 208.909 C 199.059 210.059, 200.338 210.994, 200.750 210.987 C 201.162 210.980, 202.821 208.222, 204.436 204.860 C 207.297 198.904, 207.323 198.709, 205.456 197.344 C 202.536 195.209, 200.696 196.090, 198.500 200.676 C 196.927 203.960, 195.881 204.921, 193.601 205.176 C 190.414 205.532, 189.677 206.554, 188.322 212.502 C 187.414 216.486, 187.436 216.528, 193.230 221.878 L 199.050 227.252 203.496 224.893 C 205.942 223.595, 208.129 221.851, 208.356 221.017 C 208.603 220.108, 208.815 220.369, 208.884 221.667 C 208.948 222.858, 209.507 224.002, 210.126 224.209 C 210.824 224.441, 210.042 226.728, 208.067 230.227 C 204.990 235.679, 204.936 235.975, 206.467 238.935 C 209.145 244.115, 212.195 242.612, 213.438 235.500 C 214.579 228.972, 218.422 221.659, 223.878 215.634 C 226.695 212.524, 229 209.458, 229 208.821 C 229 208.184, 231.243 204.589, 233.984 200.832 C 236.726 197.074, 238.499 194, 237.925 194 C 237.350 194, 234.320 196.363, 231.190 199.250 M 77.079 197.583 C 77.127 198.748, 77.364 198.985, 77.683 198.188 C 77.972 197.466, 77.936 196.603, 77.604 196.271 C 77.272 195.939, 77.036 196.529, 77.079 197.583 M 81.107 198.527 C 81.048 200.193, 81.675 202.519, 82.500 203.696 C 83.325 204.874, 83.754 206.477, 83.454 207.259 C 83.154 208.040, 83.653 209.297, 84.563 210.052 C 85.985 211.232, 86.402 211.171, 87.540 209.615 C 89.253 207.272, 88.389 205.136, 85.429 204.393 C 83.661 203.949, 82.848 202.775, 82.146 199.651 C 81.315 195.949, 81.203 195.827, 81.107 198.527 M 135.118 199.668 C 134.879 204.046, 135.946 205.009, 140.857 204.850 L 145.500 204.700 141.005 204.100 C 137.009 203.567, 136.440 203.167, 135.873 200.500 C 135.413 198.329, 135.204 198.099, 135.118 199.668 M 66.032 199.750 C 66.087 201.041, 68.672 204, 69.745 204 C 70.309 204, 72.285 203.300, 74.135 202.445 C 75.989 201.588, 76.506 201.093, 75.287 201.342 C 74.069 201.590, 72.552 201.165, 71.914 200.397 C 70.713 198.949, 65.976 198.428, 66.032 199.750 M 68.218 201.154 C 68.737 202.712, 70.974 202.984, 71.053 201.500 C 71.082 200.950, 70.355 200.345, 69.438 200.154 C 68.395 199.939, 67.938 200.313, 68.218 201.154 M 155.500 202.063 C 148.382 203.351, 147.229 203.723, 151.500 203.354 C 158.362 202.762, 171.776 200.235, 168 200.246 C 166.625 200.250, 161 201.068, 155.500 202.063 M 52.802 204.949 C 48.083 205.867, 46.381 207.317, 44.956 211.633 C 43.546 215.907, 44.427 219.990, 46.769 220.030 C 50.243 220.089, 94.429 213.514, 92.741 213.189 C 91.783 213.004, 91 212.211, 91 211.427 C 91 210.365, 92.470 209.982, 96.750 209.930 C 99.912 209.891, 103.400 209.495, 104.500 209.050 C 105.649 208.585, 103.638 208.460, 99.770 208.756 C 93.599 209.228, 92.865 209.072, 90.936 206.885 C 89.235 204.956, 88.949 204.862, 89.439 206.391 C 91.124 211.644, 86.542 213.788, 81.727 210 C 78.020 207.084, 72.931 207.457, 66.439 211.121 C 60.948 214.220, 58.584 214.411, 60.948 211.563 C 61.626 210.746, 63.040 209.805, 64.090 209.471 C 65.141 209.138, 66 208.254, 66 207.506 C 66 206.758, 66.787 205.941, 67.750 205.689 C 68.849 205.402, 68.570 205.233, 67 205.234 C 63.461 205.238, 57.757 206.723, 60.674 206.882 L 62.849 207 60.674 209.446 C 58.258 212.164, 57.352 211.797, 56.637 207.809 C 56.249 205.646, 56.580 205.036, 58.327 204.696 C 60.222 204.326, 60.244 204.270, 58.500 204.251 C 57.400 204.240, 54.836 204.554, 52.802 204.949 M 17.116 206.250 C 17.052 207.213, 17.952 208.952, 19.116 210.116 C 20.895 211.895, 21.891 212.114, 25.366 211.490 C 32.427 210.223, 35.606 210.545, 38.497 212.819 C 41.691 215.331, 43 215.570, 43 213.639 C 43 212.890, 41.004 211.219, 38.565 209.925 C 34.389 207.710, 33.780 207.645, 28.102 208.818 C 21.673 210.146, 18.537 209.309, 17.647 206.029 C 17.324 204.839, 17.206 204.888, 17.116 206.250 M 224.459 206.067 C 224.096 206.653, 224.014 207.348, 224.276 207.610 C 224.538 207.872, 225.019 207.392, 225.345 206.543 C 226.021 204.781, 225.445 204.471, 224.459 206.067 M 99.813 213.683 C 100.534 213.972, 101.397 213.936, 101.729 213.604 C 102.061 213.272, 101.471 213.036, 100.417 213.079 C 99.252 213.127, 99.015 213.364, 99.813 213.683 M 134 223.525 C 134 224.109, 137.186 225.401, 141 226.364 C 142.375 226.711, 141.700 226.130, 139.500 225.072 C 135.253 223.029, 134 222.677, 134 223.525 M 171 227.669 C 168.525 228.988, 167.625 229.770, 169 229.407 C 172.352 228.521, 178.894 225.064, 177 225.180 C 176.175 225.230, 173.475 226.351, 171 227.669 M 147 228.415 C 152.100 230.272, 156.618 231.285, 155.699 230.366 C 154.888 229.555, 146.318 227.067, 144.500 227.115 C 143.950 227.129, 145.075 227.714, 147 228.415" stroke="none" fill-rule="evenodd" fill-opacity="1"/>
</svg>
