<svg xmlns="http://www.w3.org/2000/svg" width="1024" height="1024" viewBox="0 0 256 256" version="1.1" class="injected-svg" data-src="https://storage.googleapis.com/illustroke-c1d67.appspot.com/hGhOVM2zF2TUtaY4ELuRoAncZ4G2/b6zxjdj0ro53oaf4xxgywv-1.svg" xmlns:xlink="http://www.w3.org/1999/xlink">
	<path fill="#E0E0E0" d="M 157 34.151 C 155.075 34.685, 151.910 35.536, 149.967 36.041 C 148.023 36.547, 144.920 38.207, 143.071 39.730 C 139.593 42.594, 136.491 48.367, 137.527 50.044 C 138.303 51.300, 138 51.264, 133.060 49.521 C 130.754 48.708, 125.996 47.748, 122.487 47.388 L 116.105 46.735 115.802 43.217 C 115.589 40.732, 114.671 39.082, 112.678 37.599 C 110.186 35.746, 108.478 35.500, 98.105 35.500 C 86.697 35.500, 86.245 35.584, 82.569 38.384 C 80.486 39.970, 77.941 43.120, 76.913 45.384 C 74.710 50.234, 74.489 58.821, 76.426 64.250 C 77.941 68.494, 77.947 68.491, 72.500 66.529 C 65.485 64.002, 57.180 64.570, 50.208 68.054 C 40.513 72.899, 36.891 81.189, 40.426 90.445 C 42.136 94.923, 48.064 101.161, 52.554 103.206 C 53.899 103.819, 55 104.675, 55 105.108 C 55 105.540, 53.457 109.180, 51.570 113.197 C 49.684 117.214, 46.477 124.775, 44.444 130 C 42.412 135.225, 40.645 139.623, 40.518 139.773 C 40.392 139.923, 35.726 139.360, 30.151 138.523 C 17.944 136.689, 19 136.702, 19 138.393 C 19 140.247, 19.974 140.547, 30.771 142.023 C 38.646 143.099, 40 143.557, 40 145.142 C 40 147.394, 40.073 147.392, 33.925 145.381 C 28.007 143.445, 17.338 143.853, 15.936 146.070 C 14.468 148.390, 14.859 149.180, 17.121 148.462 C 20.306 147.451, 30.894 147.810, 34.673 149.057 C 36.908 149.795, 38 150.786, 38 152.078 C 38 154.035, 37.521 154.142, 27.500 154.418 C 25.537 154.471, 24.500 155.018, 24.500 156 C 24.500 157.184, 25.820 157.479, 30.769 157.402 C 36.075 157.319, 36.963 157.550, 36.551 158.902 C 29.245 182.878, 27.105 192, 28.789 192 C 29.343 192, 31.754 190.880, 34.148 189.512 C 36.542 188.144, 39.175 187.003, 40 186.977 C 40.825 186.951, 43.750 185.340, 46.500 183.398 C 53.546 178.423, 64.927 171, 65.510 171 C 65.780 171, 66 172.526, 66 174.392 C 66 177.191, 65.556 177.895, 63.457 178.421 C 60.409 179.186, 59.313 181.467, 61.011 183.513 C 63.535 186.555, 70.047 184.171, 68.713 180.693 C 68.302 179.623, 68.861 179.568, 71.561 180.413 C 74.275 181.262, 74.820 181.867, 74.396 183.557 C 73.640 186.569, 76.231 188.482, 79.036 186.981 C 80.612 186.137, 81.072 185.157, 80.731 183.371 C 80.259 180.903, 80.914 178.469, 85.585 165.348 L 88.132 158.195 105.316 157.659 C 183.363 155.221, 185.531 155.111, 196 153.086 C 201.775 151.969, 207.479 150.774, 208.676 150.430 C 210.540 149.895, 211.006 150.358, 211.921 153.653 C 213.616 159.760, 213.248 161.427, 209.033 166.721 C 205.727 170.874, 203.105 172.678, 193.283 177.561 C 186.802 180.783, 179.541 184.648, 177.148 186.150 C 174.754 187.652, 168.679 189.891, 163.648 191.125 C 155.939 193.015, 152.126 193.336, 139.408 193.165 C 131.108 193.053, 120.983 193.472, 116.908 194.096 C 112.834 194.719, 106.125 195.559, 102 195.962 C 97.875 196.365, 91.125 197.425, 87 198.317 C 82.875 199.210, 71.175 201.082, 61 202.477 C 40.565 205.279, 23.802 210.072, 23.182 213.291 C 22.787 215.346, 25.796 215.524, 34.309 213.951 C 37.431 213.374, 44.151 212.514, 49.243 212.041 C 54.334 211.568, 66.150 209.905, 75.500 208.345 C 90.903 205.775, 94.379 205.536, 112.500 205.801 C 123.943 205.968, 136.283 206.721, 141.342 207.562 C 149.619 208.938, 151.017 208.897, 163.250 206.922 C 170.436 205.762, 179.508 203.565, 183.408 202.041 C 187.309 200.516, 195.675 197.399, 202 195.113 C 212.846 191.193, 214.164 190.403, 225.180 181.228 C 233.232 174.522, 237.676 170.029, 239.485 166.765 L 242.109 162.030 239.891 150.897 C 238.309 142.957, 237.003 138.968, 235.336 136.988 C 233.913 135.296, 232.995 132.900, 232.988 130.856 C 232.947 119.251, 224.707 102.942, 212.896 91.089 C 208.336 86.512, 197.107 78.763, 193.340 77.593 C 189.557 76.418, 188.827 74.654, 190.630 71.040 C 193.982 64.320, 190.382 49.314, 183.448 41.107 C 177.706 34.311, 166.782 31.438, 157 34.151" stroke="none" fill-rule="evenodd" fill-opacity="1"/>
	<path fill="#ACACAC" d="M 155.822 34.864 C 144.307 37.510, 138 42.672, 138 49.451 L 138 51.808 133.250 50.018 C 130.637 49.033, 125.688 47.907, 122.250 47.516 C 116.464 46.857, 116 46.620, 116 44.336 C 116 37.718, 111.415 35.541, 97.428 35.517 C 88.327 35.502, 87.006 35.739, 83.731 37.983 C 75.318 43.746, 73.357 52.922, 77.567 66.820 L 78.270 69.140 74.494 67.562 C 60.282 61.624, 43.590 67.622, 39.882 80 C 37.611 87.580, 42.287 96.795, 50.906 101.728 C 53.433 103.173, 55.623 104.436, 55.773 104.534 C 56.004 104.685, 51.735 114.258, 46.422 125.500 C 45.643 127.150, 44.176 130.975, 43.163 134 C 40.982 140.515, 39.950 140.829, 27.700 138.705 C 23.410 137.961, 19.671 137.724, 19.390 138.178 C 18.643 139.387, 22.398 140.509, 32.085 141.973 C 40.300 143.215, 40.651 143.373, 40.219 145.636 C 39.689 148.406, 39.700 148.404, 36.200 146.636 C 32.621 144.828, 24.341 143.891, 20.075 144.812 C 13.726 146.182, 15.771 147.498, 24.364 147.572 C 33.539 147.651, 39.272 149.349, 38.791 151.847 C 38.424 153.750, 35.079 154.768, 28.750 154.900 C 24.029 154.999, 22.515 156.216, 25.627 157.411 C 26.523 157.754, 29.448 157.744, 32.127 157.389 C 35.016 157.006, 37 157.132, 37 157.700 C 37 158.227, 34.967 165.740, 32.483 174.396 C 29.998 183.053, 28.192 190.502, 28.470 190.951 C 29.279 192.261, 44.621 184.239, 55.771 176.676 C 61.420 172.844, 66.185 169.886, 66.360 170.104 C 66.535 170.322, 66.479 172.412, 66.234 174.750 C 65.852 178.410, 65.466 179, 63.454 179 C 60.095 179, 59.423 180.867, 61.893 183.337 C 64.526 185.971, 67.334 184.693, 67.817 180.640 C 68.117 178.129, 68.254 178.065, 70.290 179.490 C 71.475 180.321, 73.245 181, 74.223 181 C 76.124 181, 76.622 182.498, 75.044 183.473 C 73.564 184.388, 75.001 187, 76.985 187 C 79.288 187, 81.192 184.665, 80.455 182.743 C 79.891 181.273, 81.869 174.278, 86.065 162.904 L 88.129 157.308 101.814 157.384 C 130.393 157.543, 181.038 155.159, 193.631 153.062 C 200.303 151.950, 207.003 150.569, 208.520 149.993 C 210.036 149.416, 211.439 149.106, 211.636 149.303 C 211.834 149.500, 212.281 152.391, 212.629 155.725 C 213.216 161.341, 213.050 162.073, 210.381 165.641 C 206.192 171.242, 204.702 172.287, 192 178.531 C 185.675 181.640, 178.925 185.240, 177 186.530 C 169.901 191.289, 159.284 193.226, 139 193.464 C 120.578 193.680, 108.270 194.785, 94 197.504 C 89.875 198.290, 78.175 200.087, 68 201.499 C 43.210 204.937, 23 210.359, 23 213.572 C 23 215.343, 24.253 215.334, 35.500 213.486 C 40.450 212.673, 46.685 212.006, 49.356 212.004 C 52.026 212.002, 56.751 211.370, 59.856 210.599 C 62.960 209.828, 68.425 208.905, 72 208.548 C 75.575 208.190, 83.589 207.026, 89.808 205.961 C 98.904 204.404, 102.427 204.214, 107.808 204.993 C 111.489 205.525, 118.752 205.969, 123.948 205.980 C 129.145 205.991, 137.166 206.545, 141.773 207.211 C 148.930 208.246, 151.896 208.169, 162.139 206.684 C 168.732 205.728, 175.786 204.323, 177.814 203.561 C 179.841 202.800, 187.195 200.151, 194.155 197.677 C 210.428 191.891, 214.821 189.843, 218.500 186.325 C 220.150 184.747, 224.949 180.656, 229.165 177.233 C 237.642 170.351, 241 165.810, 241 161.229 C 241 159.559, 240.113 153.762, 239.030 148.347 C 237.421 140.310, 236.587 138.120, 234.491 136.432 C 232.838 135.100, 232.145 133.786, 232.545 132.743 C 233.598 129.999, 230.992 119.901, 227.062 111.500 C 220.608 97.705, 209.179 86.020, 194.693 78.408 C 187.962 74.871, 187.885 74.785, 189.678 72.803 C 192.645 69.524, 192.187 58.028, 188.799 50.765 C 181.663 35.465, 172.477 31.036, 155.822 34.864 M 157.333 37.449 C 153.942 38.214, 150.117 39.381, 148.833 40.042 C 144.873 42.083, 141 46.269, 141 48.509 C 141 52.969, 144.240 60.003, 147.689 63.032 C 151.594 66.461, 151.403 67.876, 147.230 66.419 C 145.509 65.818, 143.391 63.558, 141.500 60.303 C 138.981 55.968, 137.668 54.818, 133.308 53.127 C 125.705 50.177, 117.447 49.512, 112.139 51.421 C 107.269 53.173, 91.769 62.591, 85.263 67.751 L 81.027 71.112 83.052 73.286 C 84.166 74.482, 85.339 76.501, 85.658 77.774 C 86.395 80.712, 87.307 80.357, 90.218 76 C 91.506 74.073, 95.015 71.159, 98.028 69.516 C 102.898 66.861, 104.435 66.535, 112 66.552 C 118.421 66.567, 121.601 67.074, 125 68.628 C 131.011 71.374, 135.399 75.214, 137.438 79.512 C 138.361 81.456, 139.561 82.771, 140.105 82.435 C 141.456 81.600, 150.941 83.873, 153.917 85.745 C 157.552 88.031, 162.869 87.713, 169 84.844 C 175.407 81.846, 183.686 75.858, 186.386 72.270 C 190.592 66.679, 189.064 54.968, 182.917 45.688 C 177.528 37.553, 169.019 34.813, 157.333 37.449 M 86.301 40.012 C 79.196 43.644, 76.303 52.604, 79.158 62.134 C 79.795 64.260, 80.682 66, 81.129 66 C 81.576 66, 83.867 64.697, 86.221 63.104 C 95.074 57.112, 101.662 53.073, 106.690 50.555 C 111.967 47.911, 113.617 45.520, 112.529 42.092 C 111.676 39.403, 109.727 38.839, 99.500 38.321 C 91.707 37.926, 89.937 38.153, 86.301 40.012 M 57.632 77.090 C 57.284 78.828, 57.071 83.681, 57.157 87.875 C 57.310 95.319, 57.330 95.251, 58.011 85 C 58.750 73.869, 58.658 71.958, 57.632 77.090 M 100.460 79.096 C 101.143 82.634, 106.996 95, 107.988 95 C 108.428 95, 107.327 91.963, 105.542 88.250 C 103.756 84.537, 101.770 80.375, 101.127 79 L 99.958 76.500 100.460 79.096 M 179.780 82.031 C 171.424 87.998, 162.665 91.327, 157.399 90.537 C 154.694 90.131, 152.926 90.310, 152.479 91.035 C 151.599 92.457, 144.582 95.469, 140.108 96.343 C 138.219 96.713, 134.819 98.756, 132.435 100.953 C 122.302 110.294, 103.603 110.153, 93.118 100.657 C 91.807 99.471, 89.714 96.324, 88.466 93.665 L 86.196 88.830 85.554 91.755 C 84.742 95.451, 78.692 101.406, 73.589 103.532 C 71.438 104.428, 67.265 105.218, 64.314 105.287 L 58.950 105.412 56.096 111.456 C 48.143 128.299, 45 136.080, 45 138.930 C 45 139.951, 45.675 141.045, 46.500 141.362 C 48.803 142.245, 48.279 144.166, 45.832 143.813 C 44.156 143.571, 43.474 144.181, 42.830 146.500 C 42.143 148.975, 42.382 149.819, 44.195 151.319 C 46.026 152.835, 46.151 153.292, 44.947 154.054 C 44.151 154.558, 42.968 154.976, 42.317 154.985 C 41.667 154.993, 40.897 155.787, 40.606 156.750 C 39.175 161.485, 32 186.334, 32 186.554 C 32 189.257, 71.889 163.710, 83.500 153.571 C 93.740 144.629, 105.901 134.586, 119.500 123.840 C 126.100 118.625, 133.594 112.027, 136.153 109.179 C 140.423 104.426, 144 102.526, 144 105.011 C 144 107.061, 113.168 137.521, 103.219 145.300 C 96.812 150.310, 93.292 153.692, 93.877 154.277 C 94.422 154.822, 99.995 154.985, 107.158 154.666 C 113.946 154.364, 133.364 153.658, 150.309 153.098 C 167.254 152.538, 184.717 151.586, 189.116 150.984 C 206.843 148.557, 219.812 143.872, 226.644 137.429 C 230.154 134.119, 230.240 133.865, 229.568 128.799 C 227.933 116.474, 219.362 101.006, 209.010 91.699 C 203.810 87.024, 191.506 79.401, 187.653 78.468 C 186.176 78.110, 183.704 79.229, 179.780 82.031 M 140.750 85.773 C 139.787 85.978, 139 86.977, 139 87.992 C 139 89.006, 138.727 90.548, 138.393 91.418 C 137.545 93.629, 140.721 93.477, 146.417 91.036 C 150.385 89.335, 152.543 87.049, 150.250 86.976 C 149.838 86.963, 147.925 86.603, 146 86.175 C 144.075 85.748, 141.713 85.567, 140.750 85.773" stroke="none" fill-rule="evenodd" fill-opacity="1"/>
	<path fill="#212121" d="M 153.997 35.814 C 150.421 36.748, 146.026 38.557, 144.232 39.835 C 140.424 42.546, 137.617 47.428, 138.320 50.117 C 138.920 52.408, 138.171 52.453, 133.106 50.426 C 130.942 49.560, 126.095 48.547, 122.336 48.176 L 115.500 47.500 115.196 43.856 C 114.674 37.599, 112.483 36.549, 99.145 36.162 C 87.579 35.827, 87.472 35.845, 83.419 38.796 C 81.175 40.430, 78.587 43.350, 77.669 45.285 C 75.565 49.719, 75.484 59.829, 77.513 64.686 C 78.345 66.677, 78.820 68.514, 78.567 68.766 C 78.315 69.018, 75.979 68.499, 73.376 67.612 C 67.951 65.764, 59.249 65.525, 53.679 67.072 C 49.108 68.341, 42.716 73.858, 40.991 78.022 C 40.279 79.740, 39.954 83.173, 40.231 86.051 C 40.899 93, 44.839 97.807, 54.616 103.601 C 56.371 104.641, 56.244 105.193, 52.314 113.601 C 50.026 118.495, 46.656 126.478, 44.827 131.341 L 41.500 140.181 33 139.592 C 28.325 139.267, 23.375 138.715, 22 138.365 C 20.211 137.909, 19.788 138.041, 20.514 138.828 C 21.071 139.433, 25.909 140.466, 31.264 141.124 C 41.310 142.359, 42.471 143.127, 40.056 146.943 C 39.288 148.157, 38.694 148.180, 36.322 147.090 C 31.984 145.098, 18.725 144.423, 17.309 146.123 C 16.348 147.277, 17.423 147.448, 23.941 147.178 C 33.053 146.801, 39 148.662, 39 151.890 C 39 154.616, 38.085 154.997, 31.077 155.191 C 27.735 155.283, 25 155.789, 25 156.316 C 25 156.882, 27.658 157.060, 31.490 156.753 L 37.980 156.232 37.365 158.866 C 37.027 160.315, 35.007 167.350, 32.876 174.500 C 29.078 187.240, 28.250 191.551, 29.750 190.782 C 30.163 190.571, 32.750 189.396, 35.500 188.171 C 42.421 185.089, 43.467 184.467, 55.696 176.167 L 66.500 168.835 66.828 171.538 C 67.364 175.957, 66.206 178.832, 63.748 179.181 C 62.273 179.390, 61.500 180.188, 61.500 181.500 C 61.500 183.056, 62.167 183.500, 64.500 183.500 C 66.991 183.500, 67.551 183.056, 67.803 180.886 C 68.100 178.327, 68.184 178.299, 71.803 179.547 C 74.898 180.614, 75.500 181.284, 75.500 183.661 C 75.500 185.833, 75.970 186.500, 77.500 186.500 C 79.036 186.500, 79.523 185.800, 79.600 183.482 C 79.700 180.466, 83.541 167.690, 86.388 160.907 L 87.896 157.313 110.198 156.490 C 122.464 156.037, 136.100 155.656, 140.500 155.643 C 168.097 155.563, 197.467 152.931, 209.575 149.454 C 211.407 148.928, 211.795 149.504, 212.886 154.381 C 214.264 160.538, 213.924 161.677, 208.725 168.308 C 206.486 171.164, 202.485 173.747, 192.714 178.643 C 185.550 182.233, 178.521 186.031, 177.094 187.083 C 175.667 188.135, 170 190.178, 164.500 191.624 C 155.627 193.955, 152.809 194.233, 139.500 194.088 C 124.707 193.928, 105.993 195.622, 91 198.480 C 84.142 199.787, 60.933 203.227, 50 204.556 C 42.728 205.441, 24 211.956, 24 213.602 C 24 214.572, 24.731 214.877, 26.250 214.542 C 32.098 213.252, 41.960 211.811, 50.311 211.026 C 55.365 210.551, 67.375 208.901, 77 207.359 C 92.369 204.896, 96.753 204.586, 113 204.816 C 123.229 204.961, 135.750 205.753, 141.007 206.588 C 149.881 207.997, 151.350 207.968, 163.057 206.146 C 169.955 205.073, 177.377 203.439, 179.550 202.517 C 181.722 201.594, 189.800 198.626, 197.500 195.921 C 211.982 190.834, 213.448 190.027, 223.500 181.606 C 234.150 172.684, 238.954 167.669, 240.060 164.318 C 241.740 159.228, 237.821 140.287, 234.469 137.298 C 232.557 135.592, 232 134.111, 232 130.729 C 232 120.287, 225.091 105.587, 215.111 94.794 C 208.764 87.931, 197.803 79.818, 191.157 77.065 C 187.518 75.558, 187.359 74.908, 189.738 71.277 C 192.756 66.671, 191.952 58.310, 187.653 49.612 C 180.467 35.073, 171.271 31.302, 153.997 35.814 M 154 37.588 C 147.954 39.189, 144.655 41.242, 141.643 45.277 C 139.694 47.887, 139.692 48.027, 141.504 54.013 C 142.809 58.322, 144.347 60.975, 146.778 63.110 C 148.666 64.767, 149.930 66.403, 149.589 66.745 C 148.508 67.826, 143.883 63.655, 141.561 59.505 C 138.700 54.390, 135.016 52.289, 125.824 50.531 C 118.273 49.086, 113.792 49.470, 108.976 51.976 C 103.691 54.726, 86.994 65.361, 84.031 67.865 L 80.911 70.500 83.706 75.741 C 85.242 78.623, 86.810 80.873, 87.190 80.741 C 87.569 80.608, 88.928 78.939, 90.209 77.031 C 91.490 75.123, 94.744 72.198, 97.440 70.531 C 102.006 67.708, 103.002 67.500, 111.922 67.500 C 120.015 67.500, 122.198 67.863, 126 69.840 C 131.610 72.756, 135.498 76.373, 137.049 80.117 C 137.991 82.392, 138.878 83, 141.255 83 C 144.955 83, 151.814 84.912, 154.473 86.685 C 158.915 89.647, 167.220 87.524, 177.074 80.907 C 183.987 76.265, 188.596 71.115, 189.493 67.030 C 191.566 57.593, 182.486 40.380, 173.685 37.061 C 169.800 35.597, 160.589 35.843, 154 37.588 M 89 38.167 C 79.901 40.731, 75.327 50.733, 78.407 61.329 C 79.314 64.448, 80.320 67, 80.643 67 C 81.185 67, 92.072 60.116, 98.061 55.986 C 99.470 55.014, 103.350 52.842, 106.685 51.159 C 113.471 47.733, 115.106 44.587, 112.056 40.821 C 109.378 37.514, 96.554 36.038, 89 38.167 M 57.519 73.969 C 57.190 74.502, 56.649 79.386, 56.318 84.822 C 55.879 92.028, 56.043 94.909, 56.924 95.453 C 57.589 95.864, 58.274 96.043, 58.446 95.850 C 58.619 95.658, 58.960 90.438, 59.205 84.250 C 59.610 73.999, 59.168 71.301, 57.519 73.969 M 99.562 76.900 C 98.573 78.500, 106.322 96, 108.019 96 C 109.586 96, 109.192 94.440, 106.073 88.280 C 104.463 85.101, 102.838 81.258, 102.462 79.741 C 101.707 76.693, 100.450 75.462, 99.562 76.900 M 178.698 81.896 C 170.744 87.447, 163.638 90.250, 158.305 89.940 C 155.737 89.790, 152.386 90.739, 148 92.858 C 144.425 94.585, 140.375 96.006, 139 96.016 C 137.427 96.027, 135.056 97.499, 132.607 99.984 C 127.302 105.367, 120.968 107.374, 111.127 106.790 C 97.718 105.995, 89.139 99.309, 87.408 88.306 C 86.677 83.655, 86 82.723, 86 86.365 C 86 96.387, 75.122 105, 62.464 105 L 58.290 105 54.229 113.750 C 49.442 124.067, 44 137.587, 44 139.166 C 44 139.778, 44.788 140.877, 45.750 141.608 C 47.376 142.843, 47.347 142.939, 45.329 142.968 C 43.746 142.991, 42.982 143.805, 42.505 145.976 C 42.146 147.612, 42.168 149.462, 42.554 150.087 C 42.940 150.712, 42.636 151.666, 41.878 152.206 C 40.804 152.972, 40.879 153.067, 42.218 152.638 C 43.163 152.335, 44.194 152.505, 44.509 153.014 C 44.824 153.524, 44.028 154.206, 42.739 154.529 C 40.456 155.102, 38.727 159.877, 31.271 186.211 C 30.817 187.817, 31.056 187.822, 35.143 186.289 C 37.540 185.390, 45.125 180.977, 52 176.481 C 58.875 171.986, 66.975 166.731, 70 164.802 C 73.025 162.874, 80.911 156.617, 87.525 150.898 C 94.139 145.179, 107.038 134.541, 116.190 127.258 C 125.342 119.975, 134.880 111.674, 137.384 108.811 C 142.770 102.654, 144.868 103.017, 139.773 109.225 C 133.118 117.333, 110.476 138.970, 101.250 146.037 C 96.162 149.934, 92 153.487, 92 153.932 C 92 155.657, 102.672 156.017, 117.262 154.786 C 125.643 154.079, 136.550 153.593, 141.500 153.707 C 156.791 154.058, 187.533 152.077, 197.764 150.082 C 214.989 146.723, 226.933 140.799, 229.666 134.257 C 233.497 125.088, 221.103 100.447, 207.070 89.337 C 201.483 84.912, 188.020 76.935, 186.377 77.075 C 185.895 77.116, 182.439 79.285, 178.698 81.896 M 139.666 85.750 C 139.417 86.162, 138.752 88.188, 138.188 90.250 C 137.230 93.748, 137.307 93.999, 139.331 93.990 C 142.147 93.978, 152 89.391, 152 88.093 C 152 86.165, 140.708 84.020, 139.666 85.750 M 227.185 140.475 C 225.912 141.818, 222.378 144.136, 219.332 145.626 C 213.207 148.623, 213.601 147.293, 215.593 158.264 C 216.096 161.038, 215.509 162.447, 211.683 167.644 C 207.502 173.323, 206.266 174.221, 194.341 180.243 C 187.278 183.810, 179.475 187.868, 177 189.261 C 168.804 193.875, 155.424 196.280, 139 196.090 C 122.823 195.903, 107.241 197.236, 93 200.023 C 80.878 202.396, 65.587 204.700, 56 205.598 C 51.875 205.984, 46.250 207.100, 43.500 208.077 C 38.555 209.834, 38.539 209.854, 42 209.894 C 43.925 209.916, 48.425 209.541, 52 209.061 C 55.575 208.580, 62.550 207.684, 67.500 207.070 C 72.450 206.455, 81.216 205.014, 86.979 203.867 C 94.727 202.325, 99.419 201.936, 104.979 202.373 C 109.116 202.698, 117.675 203.055, 124 203.165 C 130.325 203.275, 138.649 204.013, 142.498 204.804 C 148.768 206.094, 150.744 206.063, 161.498 204.508 C 168.099 203.553, 176.200 201.714, 179.500 200.421 C 182.800 199.128, 191.301 196.038, 198.392 193.554 C 205.482 191.070, 212.535 188.017, 214.064 186.769 C 240.771 164.980, 240.146 165.954, 237.083 150.936 C 235.935 145.306, 234.491 140.092, 233.875 139.350 C 232.202 137.333, 229.778 137.741, 227.185 140.475" stroke="none" fill-rule="evenodd" fill-opacity="1"/>
</svg>