<?xml version="1.0" standalone="no"?>
<!DOCTYPE svg PUBLIC "-//W3C//DTD SVG 20010904//EN"
 "http://www.w3.org/TR/2001/REC-SVG-20010904/DTD/svg10.dtd">
<svg version="1.0" xmlns="http://www.w3.org/2000/svg"
 width="400.000000pt" height="400.000000pt" viewBox="0 0 400.000000 400.000000"
 preserveAspectRatio="xMidYMid meet">

<g transform="translate(0.000000,400.000000) scale(0.100000,-0.100000)"
fill="#0b783e" stroke="none">
<path d="M2756 2839 c-21 -11 -41 -30 -43 -40 -3 -11 -25 -29 -50 -41 -56 -26
-83 -61 -83 -107 0 -21 -5 -42 -12 -49 -19 -19 -90 -14 -195 14 -101 26 -216
34 -303 20 -116 -19 -308 -149 -402 -273 -135 -177 -214 -378 -228 -580 -5
-68 -15 -134 -22 -147 -21 -41 -139 -136 -208 -170 l-65 -31 -285 -2 c-355 -1
-477 -16 -551 -66 -68 -46 -46 -128 49 -176 78 -39 260 -103 272 -96 32 20
-11 73 -101 125 -38 23 -69 44 -69 49 0 4 129 7 288 5 158 -1 321 2 362 7 218
29 240 28 358 -20 60 -24 93 -26 154 -10 40 11 47 10 102 -20 65 -34 93 -37
223 -21 68 9 89 8 130 -6 73 -26 123 -33 123 -20 0 12 124 6 169 -9 17 -5 21
-2 21 14 0 15 6 21 21 21 11 0 18 4 15 8 -2 4 30 7 72 6 120 -2 122 -2 134
-29 9 -20 14 -22 29 -14 13 7 26 6 41 -2 38 -20 192 -30 229 -15 l31 13 -67
32 c-38 17 -79 34 -91 37 -24 6 -31 22 -49 114 -4 19 -16 54 -26 78 -26 60
-24 89 12 160 34 69 63 97 119 113 36 11 39 10 67 -21 25 -28 32 -31 50 -21
32 16 53 14 53 -7 0 -25 70 -86 83 -73 6 6 12 34 15 64 6 75 -22 127 -83 157
-62 30 -73 59 -43 113 37 65 64 79 170 88 51 4 111 14 134 22 22 8 67 20 100
27 84 17 106 32 159 101 64 84 61 97 -40 177 -44 35 -117 92 -162 128 -49 39
-114 79 -164 101 -66 28 -198 95 -217 109 -2 1 -8 22 -13 45 -14 60 -43 104
-83 123 -45 21 -82 20 -130 -5z m-275 -1376 c16 -10 42 -36 56 -58 15 -22 36
-50 47 -62 11 -13 17 -25 14 -28 -2 -3 -56 0 -119 6 -63 6 -142 13 -176 16
-35 3 -63 7 -63 10 0 17 79 95 113 112 51 26 89 27 128 4z"/>
</g>
</svg>
