<?xml version="1.0" standalone="no"?>
<!DOCTYPE svg PUBLIC "-//W3C//DTD SVG 20010904//EN"
 "http://www.w3.org/TR/2001/REC-SVG-20010904/DTD/svg10.dtd">
<svg version="1.0" xmlns="http://www.w3.org/2000/svg"
 width="600.000000pt" height="313.000000pt" viewBox="0 0 600.000000 313.000000"
 preserveAspectRatio="xMidYMid meet">

<g transform="translate(0.000000,313.000000) scale(0.100000,-0.100000)"
fill="#0b783e" stroke="none">
<path d="M2458 3011 c-142 -56 -264 -199 -308 -364 -19 -71 -22 -98 -17 -207
6 -134 20 -200 69 -324 31 -78 105 -199 148 -244 l23 -24 -78 -78 -77 -78 -45
52 c-106 121 -298 287 -466 400 -94 64 -265 155 -317 171 -14 4 18 -15 70 -42
114 -58 222 -129 350 -231 100 -80 295 -269 348 -338 l31 -40 -69 -80 c-38
-43 -70 -82 -70 -86 0 -14 -25 -8 -107 26 -220 93 -514 171 -760 202 -195 24
-567 20 -628 -7 -14 -7 -10 -8 15 -4 83 13 452 17 551 6 244 -28 515 -102 758
-207 68 -29 126 -56 129 -58 3 -3 -7 -24 -22 -47 -22 -32 -32 -40 -49 -36
-185 45 -669 29 -862 -28 -55 -16 -38 -14 105 12 131 24 545 24 669 0 45 -8
85 -18 88 -20 6 -7 -27 -70 -41 -79 -18 -12 -98 -8 -141 7 -22 8 -42 15 -44
15 -2 0 4 -11 13 -25 l16 -25 -47 -1 c-315 -3 -683 -82 -928 -199 -85 -41
-229 -130 -222 -137 3 -2 37 17 77 43 246 159 581 248 1015 270 126 6 131 5
159 -17 l29 -23 -144 -18 c-164 -21 -345 -62 -469 -108 -95 -34 -274 -120
-305 -145 -11 -8 23 5 75 31 229 113 470 179 758 208 65 6 60 -8 -8 -25 l-51
-13 31 -16 31 -16 -72 -23 c-96 -31 -254 -112 -304 -157 -40 -35 -39 -34 23 7
34 22 97 56 140 73 110 47 312 97 312 79 0 -4 -32 -24 -72 -43 -201 -99 -449
-303 -562 -465 l-28 -40 32 40 c76 92 242 244 340 311 110 75 270 161 270 145
0 -5 -21 -28 -46 -50 -53 -47 -43 -52 44 -22 78 27 65 5 -40 -69 -50 -36 -131
-103 -178 -150 -82 -80 -210 -240 -210 -261 0 -6 27 26 60 69 33 44 103 121
155 170 99 94 230 190 242 179 4 -4 -1 -24 -11 -43 -9 -20 -15 -38 -13 -40 2
-2 39 5 83 17 43 11 126 23 184 26 101 5 127 2 246 -33 19 -5 23 1 39 63 29
107 34 106 34 -10 0 -127 12 -160 90 -248 l50 -56 10 -99 c6 -54 13 -139 17
-189 3 -50 11 -95 18 -101 16 -17 105 -34 112 -22 3 5 29 7 58 4 l52 -6 37
148 c21 81 42 163 47 182 8 30 16 38 58 52 26 10 86 41 132 70 l85 53 17 64
c9 35 20 66 23 69 3 3 5 -22 5 -55 l0 -60 60 -2 c91 -2 246 -40 398 -98 13 -5
11 -1 -6 21 -64 82 12 104 230 67 63 -11 126 -25 141 -30 40 -15 203 -183 274
-282 34 -47 80 -119 103 -160 23 -41 38 -63 35 -49 -20 72 -157 276 -261 388
-42 45 -72 82 -67 82 5 0 41 -9 81 -20 39 -11 75 -20 78 -20 4 0 -14 22 -40
50 -52 56 -58 70 -18 45 118 -75 295 -237 379 -348 51 -68 71 -91 58 -67 -24
42 -123 165 -187 231 -86 89 -172 161 -273 229 -67 45 -99 80 -74 80 16 0 158
-60 219 -93 65 -35 144 -92 188 -137 18 -17 32 -27 32 -22 0 13 -96 102 -151
139 -60 41 -210 116 -276 137 -34 11 -54 24 -58 37 -4 11 -5 22 -3 24 8 9 102
-17 148 -40 l51 -26 -7 25 -6 26 53 -16 c254 -76 420 -158 673 -334 20 -14 20
-14 7 3 -29 36 -239 167 -361 226 -69 32 -185 78 -258 102 l-134 43 -29 59
-30 59 43 -7 c64 -10 269 -62 351 -89 281 -92 524 -229 689 -388 39 -38 73
-67 75 -64 9 9 -186 181 -269 236 -217 146 -570 288 -818 330 -68 12 -100 28
-100 52 0 12 33 10 79 -7 41 -14 41 -14 30 6 -6 12 -8 23 -5 26 10 10 211 -15
346 -43 157 -31 309 -82 416 -138 46 -23 81 -39 78 -34 -8 13 -149 81 -229
111 -163 61 -465 127 -581 127 -44 0 -45 1 -89 69 -25 38 -45 74 -45 79 0 9
130 38 305 69 76 13 159 17 345 18 262 0 349 -9 561 -61 56 -13 104 -22 106
-20 5 5 -9 9 -133 40 -152 39 -335 58 -544 58 -225 1 -350 -11 -540 -48 -69
-13 -126 -24 -126 -24 -1 0 -13 18 -27 39 -30 44 -31 41 53 89 199 112 551
231 739 251 51 6 62 9 34 10 -162 5 -496 -89 -763 -216 l-115 -54 -27 33 c-15
18 -28 37 -28 41 0 4 26 6 57 4 l57 -4 -68 61 -68 61 39 19 c108 51 254 188
322 300 163 271 142 564 -54 762 -128 129 -259 143 -425 44 -81 -48 -201 -171
-264 -271 l-48 -77 -42 5 c-50 7 -48 6 -62 51 l-11 37 -13 -42 c-7 -24 -16
-43 -20 -43 -3 0 -23 35 -43 78 l-37 77 6 -75 c4 -41 7 -79 8 -85 0 -5 -15
-11 -35 -13 -36 -3 -37 -3 -49 47 -14 58 -25 59 -34 2 l-6 -38 -47 8 c-25 5
-48 10 -49 12 -1 1 1 34 6 72 18 136 15 139 -38 50 l-47 -80 -5 45 -5 45 -13
-32 -14 -32 -48 35 c-47 34 -48 35 -59 114 -23 152 -83 282 -166 359 -79 72
-170 90 -267 52z m135 -62 c114 -31 191 -187 204 -413 l6 -109 -26 7 c-24 6
-26 4 -18 -16 14 -40 3 -51 -30 -27 l-29 20 10 -26 c5 -14 10 -41 10 -58 l0
-31 -63 62 c-66 66 -91 80 -59 35 30 -42 93 -173 84 -173 -4 0 -28 21 -52 46
-25 25 -54 50 -64 56 -18 10 -18 9 1 -18 30 -42 73 -131 73 -149 0 -12 -6 -15
-20 -10 -17 5 -20 2 -20 -25 l0 -31 -22 26 -23 26 -2 -51 c-3 -81 -10 -90 -39
-47 -13 20 -26 37 -28 37 -2 0 -1 -22 2 -50 2 -27 1 -57 -2 -67 -7 -17 -8 -17
-17 0 -17 29 -28 19 -27 -23 0 -23 -2 -43 -5 -46 -9 -9 -88 109 -127 192 -70
146 -93 240 -94 389 -1 98 3 144 16 186 38 123 149 242 261 280 62 22 54 21
100 8z m1511 -290 c81 -22 185 -150 226 -278 19 -61 22 -86 18 -169 -8 -149
-58 -255 -181 -388 -73 -79 -212 -176 -284 -198 -15 -5 -2 12 37 50 59 56 107
120 98 130 -3 2 -21 -2 -41 -11 -38 -15 -147 -32 -147 -22 0 3 21 19 48 34
l47 28 -59 7 c-74 10 -90 23 -39 33 46 8 123 41 123 52 0 4 -21 7 -47 5 -27
-2 -68 3 -93 11 l-45 13 60 21 60 20 -45 8 c-25 4 -61 14 -80 22 l-35 15 81
18 c79 18 137 42 179 74 18 14 15 14 -35 1 -69 -18 -207 -32 -262 -26 -7 1 14
16 47 34 64 34 114 67 103 67 -4 0 -37 -7 -74 -16 -37 -8 -78 -14 -91 -12
l-25 3 31 39 c17 22 30 41 28 43 -2 1 -25 -3 -50 -11 -60 -18 -61 -10 -7 93
93 179 259 317 385 320 17 1 47 -4 69 -10z m-1470 -981 c31 -44 11 -111 -51
-169 -56 -53 -84 -69 -119 -69 -29 0 -33 4 -43 44 -21 84 16 162 93 197 57 26
101 25 120 -3z m832 -154 c88 -42 119 -204 52 -271 -55 -54 -160 -27 -206 52
-31 54 -28 155 6 203 20 28 29 32 69 32 25 0 60 -7 79 -16z m-1166 -224 c89
-45 126 -73 116 -88 -4 -7 -28 4 -69 32 -71 49 -159 96 -182 96 -8 0 -15 4
-15 9 0 15 67 -7 150 -49z m-95 -115 c103 -22 165 -45 165 -61 0 -19 -5 -19
-123 21 -65 22 -139 39 -194 44 l-88 8 85 1 c47 1 116 -5 155 -13z m1365 -66
c-115 -13 -234 -38 -322 -65 -44 -14 -83 -23 -86 -19 -31 30 246 93 408 93
l75 -1 -75 -8z m-1098 -82 c53 -41 111 -117 128 -167 10 -31 10 -45 0 -69 -33
-81 59 -181 166 -181 89 0 164 50 164 110 0 73 193 180 327 180 68 0 50 -15
-31 -27 -95 -13 -159 -44 -218 -106 -37 -37 -48 -56 -48 -80 0 -72 -63 -124
-163 -134 -75 -8 -132 11 -184 61 -38 35 -46 49 -50 89 -3 26 0 59 6 76 26 61
-36 188 -115 238 -42 27 -55 43 -35 43 5 0 29 -15 53 -33z m-129 7 c18 -4 27
-13 27 -26 0 -16 -5 -19 -22 -14 -74 20 -217 38 -305 40 -56 0 -94 4 -85 8 20
9 344 2 385 -8z m1360 -59 c92 -16 187 -44 187 -55 0 -5 -22 0 -49 10 -73 28
-212 43 -331 37 -58 -4 -116 -9 -129 -13 -18 -5 -23 -4 -19 7 3 8 18 17 34 20
53 12 228 8 307 -6z m-1356 -67 c-3 -10 -50 -13 -189 -13 -103 0 -185 1 -184
3 11 11 113 20 234 21 111 1 143 -2 139 -11z m498 -38 c18 -11 36 -27 39 -35
7 -19 -3 -19 -29 1 -33 25 -91 36 -132 25 -46 -13 -53 -7 -16 13 40 21 100 20
138 -4z m885 -53 c117 -30 254 -82 272 -104 10 -12 4 -12 -27 4 -91 46 -252
87 -385 98 -110 9 -140 15 -140 27 0 18 172 2 280 -25z m-1085 -336 l50 -19 0
-155 c0 -86 -3 -158 -6 -162 -4 -3 -23 -3 -42 0 -34 7 -35 9 -41 58 -8 75 -19
297 -15 297 2 0 27 -9 54 -19z m211 -39 c-3 -10 -19 -79 -35 -155 -16 -76 -31
-140 -32 -142 -2 -2 -16 -1 -31 2 l-28 5 0 117 c0 64 3 132 6 152 l6 35 59 1
c51 1 59 -1 55 -15z"/>
<path d="M2517 1612 c-12 -2 -17 -11 -15 -25 5 -37 67 -32 68 5 0 12 -34 25
-53 20z"/>
<path d="M3413 1433 c-19 -7 -16 -43 3 -50 20 -7 49 9 49 27 0 15 -34 29 -52
23z"/>
<path d="M975 1320 c-13 -5 -14 -9 -5 -9 8 0 24 4 35 9 13 5 14 9 5 9 -8 0
-24 -4 -35 -9z"/>
<path d="M890 1290 c-8 -5 -10 -10 -5 -10 6 0 17 5 25 10 8 5 11 10 5 10 -5 0
-17 -5 -25 -10z"/>
<path d="M4676 187 c3 -10 9 -15 12 -12 3 3 0 11 -7 18 -10 9 -11 8 -5 -6z"/>
</g>
</svg>
